<svg xmlns="http://www.w3.org/2000/svg" viewBox="0 0 199 204.35"><defs><style>.cls-3{fill:#231f20;}</style></defs><g id="Layer_2" data-name="Layer 2"><g id="Layer_1-2" data-name="Layer 1"><path d="M54.39,103.47l.76.19L55,104.75h2.12l.69-.63,2.76-.86.23.8,1-.4,0,.18a3.93,3.93,0,0,0,1.43.1c1.87-.6,3.71-1.32,5.57-2,.61-.21,1.27-.3,1.88-.52a4.68,4.68,0,0,0,2.47-2.27L72.7,97l.24-.1,1,.83.88-.45,1.14.42L79.86,94l.16.19c.66-.74,1.33-1.47,2-2.22.81-.93,1.6-1.88,2.39-2.82a10.37,10.37,0,0,1,1.62-2,35,35,0,0,1,4.25-2.63,8,8,0,0,1,2.3-.4l.62-.32c.21.27.41.54.62.8l.34-.36-1-.41.27-.84.91-.16a3.88,3.88,0,0,1,.71-1,4.17,4.17,0,0,0,.8-4.94,11.14,11.14,0,0,1-.42-1.53A4.58,4.58,0,0,1,95.1,74a9.86,9.86,0,0,1,.5-1.88h.33l-.67-.87-1.8,2.1.25.32H92.09a8.7,8.7,0,0,0-1.37.91c-.44.45-1,1-1.08,1.5s.64.87,1.17,1.52v1l-2.26,1.1-.44-.87h-.73L86,79.72,85,76.9l.27-.1-.65-.5L83.5,78l-.14-.28L75.8,80.24V77.47l4.25-1.79,0,0,5.08-2,0-.08,6-2.78-2.83-2.24c-.21.66.65,2.43-1.53,3l-2.4-1.13c-.63,0-.78,1.9-2.14.89l-.28.74h-1.7L79,71.2,77.8,73c-.15-.79-.21-1.38-.38-2s-.45-1.18-.75-2l1.89,1v-3c-1.11.39-2.18.83-3.29,1.14s-1.65-.23-1.63-1.49l8-3.37.09.23.76-.66,2-.36,1.39.45,1.47,2.3V63.48l-.92-1.14H87l-.07-.27-.48.28.28-1c.45-2.25,2.6-3.12,3.67-4.62l1.92-.6.8,1.14,2.42.85.11-.27.94.86,1.62-.47-.08.6,1.77.94-1.29,1.42H97.2l-.06.7c.9-.25,1.79-.72,2.61.23l-3.3,1.12-.32-1.19h-.68l.34.69-2.22.57-.67-1.27.36-.71-.54-.57-.55.44L92,60l-.59-.51-.5,1.08-.16-1.63-2.12,2.71.38,4.1,2,.15-1.27,1.81,4.48,3.13,1-.76.06.19,3.23-1.07-1-1V66.65l1,.82h1.74a5.68,5.68,0,0,0,1.23-5.29A28.55,28.55,0,0,0,99,57.48l.72-.08c3.19,2.49,3.42,5.8,2.76,9.39l-1.34,1.91-1.2.06-2.82,2.18v.83c3.64,4.24,8.3,7,12.46,10.57a16.59,16.59,0,0,0,1,12.08c1.84,3.81,4.91,6.49,8.93,8.74l9,2.33c.78-.47,3.35.59,4.61,2.06l-1.5,1-2.32-.85c-1.76,1.68-4.06,1.25-6.49,1.29l-.39,1.07h0l-1.22,1-.24-.73-1-.18V110l.86-.19.27-1.27-.17-.29-1.16.76h-.6l-.33-.79-.15.25a14.1,14.1,0,0,0-2.66-1,9.44,9.44,0,0,0-2.55.41l-.57-1.72-.55-.08-.14,1.71-1.52-.55v2.66l1.86.27.15-.45,1.75,1.34.27-.06-.27-.68,1.14-.17-.49-.91,1-.71.37,2.21,1.29-1,.69,1.1.61-.72,0,0,.09,1.68,1-.35c0,.35,0,.59,0,.83l-.66.22.29.3.33-.55.91-.2.21,1.07.93.11,2,1.77-.26.42c-2.25-2.45-5.28-2.11-8.29-2.56l.59,1.38L114,116.16l1.53-.26.37.43-2,2.56v1.29l.76.33-1.08.76.73,1.42c.21.41.43.81.65,1.23l.7,7.26c-.91-.05-1.94-2.63-2.77-6.53h-1.21v4l-.75.08-1.63,3.37,1.43-.37-1.35,2.32.48.56v5.43l1-.28.17,1.09.71,0v-2.38l.3-.17,1,.88a24.21,24.21,0,0,1,.9-2.6,6.18,6.18,0,0,1,1.13-1.28l0,0,.15,2-.84,1v1.12l-1,1.18.9,1.07-1.21.35.71,2.09-.22.07.74.85h-3.24l-.13-2.21c-1.87-.49-2.14-2.45-3.29-3.81v-3.24c-1.45-1-.91-2.42-.89-3.76l-.33.07-.31-1.28h0c.91-.19,1.12-.81,1-1.62h.55l-.38-.56-.31-.7-.69.9,1-.2c0,.2-.09.39-.13.59l-.84.49c-1.47-1.6-3.44-1.66-5.43-1.74a6,6,0,0,1-2.23-.46,5.85,5.85,0,0,0-5.08.38,5.93,5.93,0,0,1-1.76.16l-.62.56-6.25.54V129H82.86l0-.16-2.36.94-.17-.26.88-1.23-2.57.44L79,128l-1.06-.13-.17-.36,1-.62v.56l.27-.07-.27-.49L77,125.72l-1,.81-2.62-.39-.56-1-1.21.27.41-1.06-1.87-.8.61,1-1.07,1.88h0l-.5-.63-1.32.55c.05-.41.1-.82.16-1.35l-1.06.13-.12.34,1,.85-1.27,1.38c0,.46,0,.93,0,1.43l1.4-.82.34.35-1.76,2.3.47.66,1-.39.12,1.11L66.4,133l1.28,4.17.77-.69h0l1.25-.15.17.4-1.17.63-.46,1,1,2,1.41,1.12.06,1.34.62.36L72.73,147l2.85.74a3.73,3.73,0,0,0,3.14,2.82c.8.15,1.56.43,2.4.66l.23-.24-.26-2.31,1.2.67-.09,2.11c1.12-.89,2.13-.21,3.15.39a2.56,2.56,0,0,1,.79.66c.62,1,.6,1,1.92,1a2.72,2.72,0,0,0,.2-.35,3,3,0,0,0,.17-.41h1.43l.21,1.31,1.16-.58-.77-1,0-.26,1.5.36.16,1.51.78-1.69,1.56.39.59-1.05.81.77,2.79-.91h0l1.72-1.15c.52-.37,1-.76,1.53-1.12l.54.44a15.61,15.61,0,0,0,2.75-1.76,13.83,13.83,0,0,0,1.68-2.56l1.13.45-.34-1.44,1.6,1.16-.39.63.16.22,1.71-1,.61,2-1.77,1.9.65.78c1.68.06,2.51-2.05,4.41-1.32l.75-.65.24.16-1.89,2.89.25.34,2.4-.6.64-.66.11.27,5.45-2.16-.07-.13,2.56-.48c0,1.31-3.26,3-6.42,3.34l-.93.83-.74-.38s-.1,0-.11,0c-.7,2-2.52,2.28-4.2,2.78a58.18,58.18,0,0,1-14.47,2.47,4.75,4.75,0,0,0-.89.2H93.51l-4.35-.46a58.77,58.77,0,0,1-34-15.43c-.11-.1-.2-.24-.13-.16l2.45-4.6-.18-.24c1.1-1.18.46-3.7-1-4.78s-3-1.84-4.25-3.28a11.68,11.68,0,0,0-2.94-1.89l.15-.28-.92-.11L43,122.1l6.13-7.74v3.16l1.68-1.69,1.58,5.23,1.44,1.64-.2.47.25.17a4.1,4.1,0,0,1,.51-.64,4.53,4.53,0,0,1,.67-.39c.34-1.2-.55-1.85-1-2.75l1.72.41c-1.44-1.79,0-3.58-.15-5.33l-.84-.32.86-.95-.24-1.22.85-2.6-1.3-.09.11.68-.47.19L53.85,112l-1-.86c-.39.23-.81.5-1.25.72a11,11,0,0,1-1.13.43l0,0c.25-.46.53-.9.74-1.38.32-.77.6-1.56,1-2.55l-1.26-1,.27-.89-1.11-.72L52,104.45l-.85-1,.32-.89-2.24-1.09-1,1.49.22,2.64-.34.08-.41-1.58h-1l.42,1.14-.5-.13h0l-.9-2.25L44,104.44l-.79-.37-1.35,2.16.32.1-1,3H41v-2.86l-1.67.6.92,1.36-1.9.74-.35,2-.27,0-1.11-6.09,2.58-1.35.8-1.2-.53-2.86V97.32h.14l-.38-1.62.45-.14,2.14,6.32c1.06.54,1.28-1.52,2.16-1.38l.22-1.43,1.86.35c1.62-2.77,4.83-3,7-5-.54-.31-1.08-.63-1.63-.92s-1.34-.68-2-1a2.33,2.33,0,0,1,.08-.31h0c.58.18,1.15.37,1.73.52,1.67.44,3.34.89,5,1.27a21.34,21.34,0,0,0,4.3.77c2.64,0,4.93-1.14,7.16-2.5a20.48,20.48,0,0,1,3.59-1.64c2.24-.83,4.57-1.47,6.45-3.06,1-.82,2-1.61,2.87-2.48a6.7,6.7,0,0,0,2.34-3.5,4.45,4.45,0,0,1,.64-1.09l1.24,1.74L84,85.77c-1.84,2.33-4.47,3.78-7.17,5.1a29.85,29.85,0,0,1-2.86.93,2.87,2.87,0,0,0-2.08,2.9c-5.12.27-10,1.14-14.4,4l-1.68.85v0l-1.89.84,1.33.93-.45.73L53.08,102l-.57-.55-.18.19.88,1.81.78-.67.42.75-.47.28.17.17Zm26.53,5.66h-.51l0,.28c.16-.09.31-.19.46-.29l.12-.4h-.19ZM94.2,61.29l.61.29.08-.3-.73,0L94,60.8l-.23.15ZM96,113.94l-.07.42h.18L96,114l-.49-.24-.06.23Zm1,2.4.08-1-.38,0,.31.9.1,1.07-1.25-1.24-.66.08c.09.44.17.81.25,1.18l-.4.22.21.19.16-.45.58.08.81,1.65.26-.11v-1.63l.78.32.39-1.58Zm1.9-1.69.67-.34c.12-1.61-.09-1.91-1-1.78q.15,1.08.3,2.13l-1.27-.52V115Zm6.62,7.8,1.35-.68-.6-1.48-.72.66v1.54l-.77.07.16.35ZM64,129.22l-1.29.48.33-.83-.16-.19-1,.63,1.17,1.84.93-2,.39-.54-.35-.17Zm40.28-8c.78-1.16-.48-1.6-.82-2.38.45-.73-.46-2.28-1.58-2.83l-.59-2,.41.74L100.05,116c.38.57-.91.41-1.17.79l1.59,1.14.8-.43c0,.39,0,.66,0,.93s0,.63,0,1a1.64,1.64,0,0,1,2.05,1.2,2.79,2.79,0,0,0,.44.71l.16.38Zm-39.82,4.11-.91-.11.46-1.82-.46-.18-.74,1.36-1.1-.52-.51.76c.24-2.07,1.77-3.89.79-6.07l.6-.25-1.21-1c.47-1.26,2.32-1.37,2.05-3A4.29,4.29,0,0,0,60.18,118c-.38,2.29-.87,4.55-1.35,7l.39.36c1.16-.39,1.3-.3,2.57,1.66l2.1-.15L63,128.43l.34.19c.89-.34.69-1,.54-1.73.65-.13.65-.15.2-.86l.37-.71.06,0Zm-2.68-15.86,0,0-.54-1.46,1.12-3-.27-.14-1,.77a4.62,4.62,0,0,0-1.79.43,17.71,17.71,0,0,0-1.57,1l-.31,1.71.19-.07.68,5.66a1.76,1.76,0,0,0,.72,2.61l-.62-1.42,1.65-2-.37-1.1,1.69-.13.63-1.54.69-.24-.08-1.05ZM77.51,119l.89.58.19-.54H77.48l.37-1.81,1.71-.83-1-.48,1.16-1.06,1.32.48v-1.23l-1-.14.26-1.62-.81.1L79.37,114l-.29,0-.64-1.62-.3,0-.3,2.19-1.61.28-1.46-1.27-.3-1.61-.3.06-.68,1.52H74.8c-.19.16-.36.41-.58.48a8.44,8.44,0,0,1-1.25.19l-1.7-1.35-.18.16.23.7-.39,1.5-.91.1L69,117.08l2-.49-.85,1.64,3-.3,1.82,2.21,1.62-1.84ZM96.92,102.8l2.31-.29.62.94h1.82a1.92,1.92,0,0,0-2.56-1.64l-1.91-1.22-.18,1.2-1-.2Zm17,1.39c-1.15-1-1.93-2.46-4.08-2.24l1.35,2-.82,1,2.3.47-.41-.89.91.39Zm-14.25,16-.36-1,.71-.79-.58-.51-2.86,1.95.81,1.05ZM84.16,99.75l-.08,1.45-.83.94,1.68.44,1-1.74Zm16.7-19.3c-1.3,0-1.23,1.12-1.8,2l1.8.59Zm6.32,42-1.34,1.45.39.36.74-.74,1.13.23-.76-2.3Zm-26.3-2.84-1.2-.49-.15.48,2,.49,1.3-1.07-.16-.24-1.47.22Zm4.47-16.18,2,.61.18-.29-1.21-1.34ZM73.27,119l-.3-.38-1.76.12,0,.28,1.07.12-.29.66.29.22Zm-14.95,1.35.59-2.87-.64-.07-.42,1.47ZM53.63,105,53,106.51l1.51-.13ZM81.88,112l.23.31,1.55-.5-.14-.86ZM81.21,67.4l-1.37.86h2.27Zm13.67,52.1.62-1-.18-.15-1.26.54ZM62.51,135.94l1,.74V135Zm13.18-23.53.27,1,1.21-1Zm-20,5.35.2.15.55-.75-.75-.56Zm47.81-2.53-.46.3.49.71.36-.22Zm-21.91,0-.45.37.58.63L82,116Zm-28.4-4.3.24.26a7.28,7.28,0,0,0,.51-.62s-.08-.17-.16-.34Zm27.94-8.87-.25-.27a5.69,5.69,0,0,0-.49.61s.07.17.15.35ZM82.26,70l-.32.44a6.48,6.48,0,0,0,.67.39,2.4,2.4,0,0,0,.29-.37ZM85.42,96.5,85.17,96l-.67.46.25.38ZM82.27,68.28l-.35.36.6.58.29-.3Zm26.64,58.3-.69-.82-.6.82ZM97.58,59.77l-.33-.21-.48.65.26.2Zm-27,54.6,0-.26-.73,0,0,.28Zm21.12,5.38.34.23.4-.7-.26-.15Zm1.66.39.28.26.51-.62-.27-.21Zm-46.2-18,.18.24.67-.47-.2-.27ZM68,115l-.25.37.69.28.07-.23Zm20,12.17,0,.28.65-.07v-.21Zm-14,21-.3,0v.65l.2,0Zm18.6-88.46.25.22.53-.65-.23-.19Zm5.18,40.36.21-.24-.64-.53-.19.23ZM74.85,110.87l-.25-.14-.47.65.35.2Zm-6.33,7.8a2.49,2.49,0,0,0,.8-.22c.07,0,0-.32-.06-.71ZM53,105.58l0-.31-.66.1,0,.21Zm49.54,14.48h-.3l.08.66.22,0Zm-4.42-9.68,0,.28.65-.07v-.21ZM80.64,69.7h-.29l.08.66.21,0ZM76.9,114l0-.29-.66.08,0,.21Zm-18.69,7.92.28,0-.06-.94h-.22Zm22.23-4.45-.12.13.18.23.2-.22Zm29.72,23.22v.18l.3,0,0-.29ZM83.74,114.43l.18,0c0-.11.07-.22.09-.32s-.13,0-.2-.07Zm-.11,37.91-.17-.07-.17.33.21.09ZM114.19,107H114l0,.3.3,0ZM80.24,127.12l-.17-.05a1.35,1.35,0,0,0-.09.33l.2.06Zm-17-22h.17v-.58h-.19Zm-1,23.1,0-.24-.31.1,0,.14Zm39.19,22.09v.15h.59l0-.2ZM62.39,107.87V108H63v-.2Zm4,10.07h-.14v.58h.2Zm27.45-1.21,0,.18.55-.07,0-.22Zm-.21-58.54.07-.11-.22-.15-.08.12ZM73.11,112.5l-.1-.07-.16.22.12.08Zm24.37,1v-.12l-.32,0v.18ZM75.15,150.09l.07-.22-.48,0Zm32.63-.41ZM63.94,134.89l-.08-.19-.52.33Zm0-13.43-.08-.2-.46.28Zm-8.4,3.36-.08-.2-.46.28Zm36-66.1H91.4l-.05.32h.18Zm-29.07,73-.08.11.22.16.09-.13Zm20.29-14.23-.21-.06,0,.48Zm-9.1,2.57.08.2.46-.28ZM55.22,123v.12l.31,0V123Zm8.27-.44-.21-.06,0,.47Zm4.94,19.51.09-.08-.08-.08-.09.12ZM93,58.48Zm-30,73s0-.08-.08-.08-.06,0-.08.07l.11.09ZM97.83,74.8c-.11,0,0,0,0,0Zm-32.7,60.46-.08-.08-.08.08.13.08Zm11.1-23.95c.11,0,.06,0,0,0ZM115,106.62h0S114.94,106.72,115,106.62ZM79.69,68.46h0C79.68,68.51,79.66,68.56,79.69,68.46Z"/><path d="M154.71,101.82c-.32,2.15-.6,4.32-1,6.46-.25,1.46-.59,2.9-1,4.33a10.23,10.23,0,0,1-.74,1.57l-.82-1.25c-.65.86-1.16,1.6-1.74,2.28s-1.12,1.22-1.69,1.83l-.34-.24,2.24-4.17-.78-.37c.34-1.74.66-3.42.87-4.53-.9-3.2-1.67-5.9-2.5-8.81-1.32-.34-1.69-1.74-2.31-3a2,2,0,0,1-.07-2.3c.14-.2,0-.67-.13-1-.23-.68-.53-1.34-.93-2.3-.68,4.35-3.57,7-6.39,9.73l-1,.1c-2.58,2.09-5.68,2.05-8.54,2.92l-.55-1.77,2.38-.47-.13-.65-.94.24-.92-.49,3-1.82-.66-.89a1.53,1.53,0,0,1-2.41-.32l1-2.2,1.94.15v-.1l1.47.43.34-.91,1.55.07,0,0,.23.41.29-.41,0,0,.73-.23-.05-.22-.68-.06,0,0-.08-1.14,1.15-.19.06-.31c-.41-.09-.81-.16-1.21-.26-1.37-.34-2.73-.77-4.13-1-2.65-.47-5.32-.87-8-1.26-1.31-.19-2.64-.3-4-.43-1.63-.16-3.26-.28-4.89-.47a5.54,5.54,0,0,1-1.28-.52v4.2l-.29.07-2-4.92-.42.06c.19-1.43.36-2.87.57-4.3s.44-2.69.67-4.07L109,78.7l-.28-1.9c.28-.75,1-1.77.9-2.71s-.94-1.9-1.46-2.84l-.58.08-.48,2.15,2,.76-1.95,1.65-2.31-.55-1.1-1.06c.19-1.16.38-2.38.6-3.6a1.71,1.71,0,0,0-1.27-2.2l-1.77,2-.44-.33,2.9-3.89A6,6,0,0,1,109,68.19c1.61,1.51,3.54,2.67,5.28,4.06.37.3.5.91.74,1.38,0,.13-.09.27-.14.41l.19,0-.06-.44c1.37.52,1.49-1.05,2.43-1.24l2.13-1.26-.1-.21,1-.1-.08-.24,3.2-1.14a7.11,7.11,0,0,1-2.18-5.1l1.13-.81a6.25,6.25,0,0,0,2.35,3.94,5.82,5.82,0,0,1,1,1.69c6.92.71,12.85,3.29,16.89,9.29l.94,3.24.47-.11-.49-3.3,0,0c2,.87,4.19,1.38,5.81,2.68,1.89,1.52,4.06,3.1,4.32,6,.19,2.16.61,4.3.93,6.45ZM126.9,81.56l-.58.52H125l-.32-1.36-1.14.83,1.09,1.07.11-.28c1.93,1.23,4.35-.09,6.07,1.18l3.3.34,0-.8-1-.14c.17-1.5-1.13-1.5-1.77-2l-1.29.24-.21.41Zm-15.15-6.39.5,1.18L110.86,78l.34.32c1.17-1.19,2.34-2.38,3.49-3.59.07-.07,0-.29,0-.45Zm10.41,7.06.26-.46-1.16-.84-.78.7Zm12.72,1.39,2,.43.18-.23L136,83.06Zm9.34,5.9.19,0,.64-1.28-.83-.25ZM135.06,96l.74-.71-1.5-.54Zm-9.47-15.18.22.35.66-.5-.17-.27Zm6.87,18.48.32,0-.09-.74-.23,0ZM131.06,96l0-.29-.74-.06,0,.26Zm-1.32,1.23v-.31l-.65.07,0,.24ZM110.33,77.52l.17-.06-.11-.33-.2.07Zm21.52,19.2v-.17h-.57v.2ZM127.43,81v.17H128V81Zm-7.34.52-.08-.09-.08.08.13.08Z"/><path d="M67.25,83.21l1-.74-.18-.26-7.28-.92c-2.12-.28-4.24-.54-6.35-.84-2.8-.4-5.6-.81-8.4-1.25-1-.15-1.91-.38-3.18-.64L43.38,82l-.26.21-.56-.61-.82-1V79l-.89-1c.43-2.26.29-4.7,1.54-6.87.83-1.45,1.61-2.94,2.44-4.39a12.36,12.36,0,0,1,5.66-5.23,23.14,23.14,0,0,1,6.87-2.14c4-.49,7.28.89,10.23,2.84a14.41,14.41,0,0,1,5.9,7.18c.75,2.26,1.83,4.59,1.33,7.13-.32,1.62-.74,3.22-1.11,4.82a8,8,0,0,1-.23,1c-2.64,4.32-5.71,8.12-11,9.4l-.27-.67-1.14,1-2.36-.91.55-1.34,1.48,1.78.2-1.21-.27-.06c.08-.09.16-.17.23-.26a2.79,2.79,0,0,0,.17-.25l-.53-1.49L61.87,87l.86.77-.73.35.46,1.07h1.17l-.47-1.36,2-.94-2.05-1.68H66l.21-1.14.59,1.9.47-.11.07-1.43.77-.92-.91-.34ZM57.47,68.6l-.14.36L58.22,70l-.63.76-1.11-.43.38,1.08L56,72l0,.41c.86.17,1.72.36,2.59.5,1.82.29,3.65.54,5.48.83.63.1,1.25.31,1.88.39.92.12,1.85.17,3,.28l.21-.21-.27-1.83a31.13,31.13,0,0,0-2.58-2.28,23.64,23.64,0,0,0-2.75-1.47l-1.06.85L64,71.13l-.12.17-4.64-2,0,.05Zm8.17,19.22-.18-.23-.65.49.21.26Zm-13.28-16-.07.1.22.16.08-.12Zm13,14.75Zm-.77,3.34,0,.08h.16a.2.2,0,0,0,0-.08S64.6,89.86,64.57,89.86Z"/><path d="M125.57,50.11l-.53-1-.5.24-.22-.68-.16.2-2.32-1.51h-1l-.91-1,.7-.85-5.91-1.24,0-.37-1,.55-.45-1-1,.46-.14-1.13-1.1.36V40.61c10.93.61,32.46,17.68,36.53,29.23-2.08-1-3.91-1.84-5.72-2.71s-3.84-1.47-5.25-3.2l-.25-2.24-1,.21-.59-.93,1.19-.4-1.91-1,0,0-.21-.71-.31.71,0,0-1-1.37.3-.36,1.71.34.13-.17-1-.83.38-.65-2.35.49-.09-.19.85-.59-1.13-1.3-1.14,0-1.77-1.67.2-.31c2-.17,2.67,2.77,5,2.31l-2.47-1.68-.14-1.86-1.05,1-.88-.81.16-.07-1-2-.51.18.36,2.93-1.58-.52.06-.3.86-.31-1.7-.78c-.06-.28-.13-.58-.19-.89l1.37.14C126.56,49.26,126.56,49.26,125.57,50.11Zm10.5,8.46,0-.25-.61.08,0,.17Z"/><path d="M139,128.57l.18.91,2.43-.64,1,1.67L144,130c.63,1.53-.58,2.29-1.1,3.19l-3.52-1.4-.19,3L138,136.05c-.33,2.4-1.13,3.62-2.83,3.71l.19.31a24.16,24.16,0,0,0-2.19,1.34c-.68.51-1.22,1.22-1.91,1.73-1,.74-2.1,1.39-3.15,2.08l-.28-.35c.56-.59,1.34-1.09,1.63-1.79a17.14,17.14,0,0,0,.85-3.58,14.44,14.44,0,0,1,2.23-5.24c.22-.34.33-.74.59-.92l1.68-1.11.84.74,1.76-.6.16-.59.55.2.89-1.29-.85-1.66.9-.45Zm-5.29,5.68-.08.17.33.17.1-.2Z"/><path d="M69.15,51.78l-1.57.76-.17-.26L68,51.2,69.12,51,68,50.35l-.77.72-.5-.33c-1.15,1.18-1.38,1.69-1,2.53a7.51,7.51,0,0,0-2.08-.42c-1.77.19-3.53.53-5.29.83a16.53,16.53,0,0,1-2.76.35A55.45,55.45,0,0,1,75.45,41.82c.2.75.18.72-.79,1.27a2.93,2.93,0,0,0-1.21,1.29l-1.4.07-1.32,2.61.66,1.41-1.51-.84-.09,1.15,1.24.66,1.17-.51c.29,1,.09,1.55-.94,1.8a10.38,10.38,0,0,0-2.11,1.05Zm2.92-8.22-.15.24.35.13.07-.13Zm-2,3.75.12-.13L70.05,47l-.2.22Zm.26-2.85-.07.1.22.16.08-.12Z"/><path d="M83.17,131.34l-.8.95.2.27,2.57-.88c.71,1.21-1.17.68-.83,1.69l1.16.76-1.54.17.84,1.07c-.32.72-1,.58-1.71.42h0l-1-.05-.13,1.56-.46-.82H79.14L79,138.26l-2.64-1.33-.45.58-.44-1-2.18,1.59v-1.53l.86-.83-.26-.36-1,.37-.18-.17L74,134.4l.08-1.31.33-.17,1.94,3.36H77l.47-3.16,1.5.38.25.65,2,.23-.34-2,.8-.62-.12-.26-1,.16,1.25-1.5,1.4,1.25Zm-2.24,4,.11.26,1.55-1.18-.69-1.13Zm-2.23,1.8-.27-.3-.58.61.19.22Zm4.89-3.61-.29,0,.07.66.22,0Zm-7.7,2.92c0,.11,0,.05,0,0Z"/><path d="M39.77,77a42.1,42.1,0,0,1,1.08,4.78,11.42,11.42,0,0,1-.43,3.07c-.17,1-.42,2.08-.56,3.12A8,8,0,0,0,40,90.05l-.38,2.87H39.4l-1.31-5.35.24-2.26-.75-.89Z"/><path d="M127.27,140.37a13.52,13.52,0,0,0-.25,1.55c0,.73,0,1.47,0,2.52l-1.94,1.43-3.57.38c.55-2.79,2.48-4.53,4.66-5.94l1.15.09Z"/><path d="M90.33,42.84l-.52,1.4-1.46-2.09,1-1.93.84,0L91,41.86l.56-2L93,42.28l.23-.08.15-1.91h.23V44c-1.27,0-.78-1.79-2-2l.32,1.52-.54.71-.24-1.83-.82.55c.11-.69.31-1.41-.89-1.81a6.61,6.61,0,0,0-.12,1.55C89.32,42.74,90,42.77,90.33,42.84Z"/><path d="M87.2,85.26l-1.69-.8,2.81-4.13.33.18V83Z"/><path d="M43.25,88.76l1.44,1-1.28,2L43.35,93l-1.28.09.42-1.8-.62-1.76.51-1.21.9.5c-.22.16-.55.27-.64.49s.06.53.1.8l.61-.48Z"/><path d="M128.59,116.94l2,2.38.19-.68h.28l.84,2-.2.25-4.86-3,.19-.42,1,.23Z"/><path d="M105.44,40.3v4l-1.78-2.36-.27.1.3,1.61c-.25-.15-.66-.3-.65-.41.08-1-.4-2.12.42-3.21l1.31,2.3.23-.07.15-1.92Z"/><path d="M102.19,43.93h-1.56c-1.14-1-.36-2.35-.64-3.64h2.09l0,.21-1.22.22.43,1.31-.87,1,1.59.16Z"/><path d="M99.71,43.17l-.74.91-1.85-.49,0-.34L98.75,43,97,40.55l2.6-.52-.16,1.11-1.29-.58-.32.33Z"/><path d="M41.45,93.5h1.31c.84.77.83,3.33-.14,4.25Z"/><path d="M107.74,43.41l-2-3.16h2.74l-.59.67-1-.35-.28.32,1.88,2.24-.72,1L106,43.6l.11-.47Z"/><path d="M127.31,140.4l-.73-1,1-1.49c1.53.46.89,1.55,1.1,2.54l-1.37-.12Z"/><path d="M76.26,146.4,75,146.09c-.08-.55.32-.83,1.71-1l1.09-1.72.33.17,0,.68Z"/><path d="M80.9,140.13h2.63c-.43.84-2.93,1.43-4.09.91l1.17-.16Z"/><path d="M115.08,135.37l-.66-.54v-2.22l.4-.12.49,1.56,1.08.71,0,.38-1.31.19Z"/><path d="M141.66,76l-1.87-1.9.21-.29,1-.09,1,1L142,75.82Z"/><path d="M87,42.33l.46-1.26c.11-.31.21-.63.32-.94l.45.11-.48,3.58-.32.1L87,42.3Z"/><path d="M87,42.3l-.77-.3-.16,1.39h-.18V40.09A2.06,2.06,0,0,1,87,42.33Z"/><path d="M86.12,139.86v1.21l-2-.52.07-.33Z"/><path d="M71.8,136.35l-1.14-1.66,1.14-1Z"/><path d="M129.7,93.23,128,94.63l-.57-1.06,2.29-.56Z"/><path d="M147.16,115l-.39,1.52-.47.06-.65-1.58Z"/><path d="M124.39,116.13l.21-.89,2.15,1.18v.21Z"/><path d="M63,83.6,65.12,83v1.31Z"/><path d="M70,55.27l-.49-.6L70,54.1h1.61Z"/><path d="M103.2,137.09c-1,1.58-1,1.58-1.52.65.29-.09.57-.17.84-.28A7.58,7.58,0,0,0,103.2,137.09Z"/><path d="M80.47,131.64H79l.73-1.36Z"/><path d="M61.09,86.64l1.43-1C62.77,86.48,62.44,86.76,61.09,86.64Z"/><path d="M68.44,135.3v-.49h0l.81-.24.4-.95h0l-.26,1.86-.95-.18Z"/><path d="M45.52,105.64l-1.66-.52c.79-.4,1.39-.35,1.63.55Z"/><path d="M96.58,42.2H94.72V42h1.85Z"/><path d="M77.73,145.74v1.41h-1Z"/><path d="M133.24,122h-1l.65-1.18.23,0Z"/><path d="M67.61,130.8l1.07-.93.4.93Z"/><path d="M76.36,71.9l-1,.19V70.68Z"/><path d="M121.93,112.29v-1.1l1,.07-.78,1.1Z"/><path d="M38.92,114.47l-.61-1,.33-.2.67,1Z"/><path d="M50.52,112.33l-.4,1.27-.48-.28.91-.95Z"/><path d="M38.74,93.89l.83,0v1.33Z"/><path d="M73.58,45.11l-1,.63-.21-.32,1-.68Z"/><path d="M68.44,134.81l-.69-1.63.4-.11c.09.58.19,1.16.28,1.74Z"/><path d="M115.66,139.9l-.6,1-.32-.16.51-1.06Z"/><path d="M40.89,109.73l.85.75-.75.66Z"/><path d="M58.67,85.76l.48-.68.28.27-.59.65Z"/><path d="M62,85.14l-.63-.52.27-.37.72.45Z"/><path d="M115.54,138.6l.56-.65.35.31-.59.63Z"/><path d="M82.24,138.37l.66.61-.29.31-.54-.73Z"/><path d="M127.08,99.84l-.61-.65.24-.23.61.57Z"/><path d="M73.07,132.62v1l-.23,0-.08-1Z"/><path d="M67,52l-.68.49-.21-.28.66-.53Z"/><path d="M68.43,135.3c0,.4,0,.79,0,1.19h0l-.63-.32.62-.86Z"/><path d="M61,84.41l-.51.6-.26-.23.52-.59Z"/><path d="M40.56,117.37v-.71l.19,0,.13.71Z"/><path d="M91.59,137.07l-.73-.49.22-.21.48.73Z"/><path d="M96.74,151.28l-.6.57-.2-.19.57-.61Z"/><path d="M90.33,65.31l-.61,0,0-.24.63-.11Z"/><path d="M76.19,129.25l.72,0,0,.24-.7.12Z"/><path d="M56.31,101.77h-.65v-.18h.66Z"/><path d="M125.72,100.72h.7v.21h-.7Z"/><path d="M136.07,125.07v.7h-.21v-.7Z"/><path d="M132.73,93.15l0,.68-.25,0-.1-.72Z"/><path d="M76.64,131.62l-.1-.67.28-.06.12.68Z"/><path d="M134.39,122.5v.7l-.22,0-.09-.68Z"/><path d="M60.82,82.59l.57.6-.12.13-.61-.58Z"/><path d="M135.72,124.46l-.67.07-.05-.26.66-.12Z"/><path d="M60.16,87.83l-.54.55-.2-.19.56-.54Z"/><path d="M77.24,41.24l.42-.13,0,.16-.4.15Z"/><path d="M136.5,126.36V127l-.18,0-.08-.6Z"/><path d="M94.9,128.65l-.58.06,0-.24.58,0Z"/><path d="M77.3,148.82l-.63.05,0-.23.63-.1Z"/><path d="M69.09,138.1l.58-.06,0,.24-.58,0Z"/><path d="M94.27,137.67h.65v.2l-.64.09Z"/><path d="M119.05,110.12l-.55-.34.3-.28.21.65Z"/><path d="M73.68,128.66V128l.2,0,.09.64Z"/><path d="M78.94,41l-.49.07,0-.12.47-.14Z"/><path d="M67.24,83.21v.56L67,83.7c.09-.16.19-.32.28-.49Z"/><path d="M98.69,151.62l-.28-.49.27-.06v.55Z"/><path d="M114.13,147.23l.15.32-.21.07-.11-.32Z"/><path d="M95.85,139.51a2.14,2.14,0,0,1-.32.08s0-.13-.07-.2l.35-.06Z"/><path d="M70.62,137.85l-.27.09,0-.29.3,0Z"/><path d="M91.56,137.1l.49.28-.18.16-.28-.47Z"/><path d="M75.53,68.76c0,.11.06.21.08.32a1.56,1.56,0,0,1-.21.06l-.05-.34Z"/><path d="M117,136.28l-.08-.27.29,0,0,.3Z"/><path d="M122.42,110.09l.27.49-.27.07v-.56Z"/><path d="M111.82,108.76a1.67,1.67,0,0,1,.32-.08,1.29,1.29,0,0,1,.06.2l-.34.06Z"/><path d="M83.2,131.36l.27-.48.17.17-.47.29Z"/><path d="M78.61,131l-.14.25-.22-.2.23-.18Z"/><path d="M106.12,130.74h-.56l.07-.27.48.28Z"/><path d="M64,86.82l-.13.35-.21-.09.17-.34Z"/><path d="M68.94,90.82h-.29l0-.14.31-.08Z"/><path d="M49,91.62l.48.52,0,0-.53.08,0-.59Z"/><path d="M134.09,94.4l0-.46.46,0,0,0v.51l0,0h-.52Z"/><path d="M70,127.88l-.08-.27.29,0,0,.3Z"/><path d="M45.49,105.67l.43.15-.18.21c-.07-.13-.14-.26-.22-.39Z"/><path d="M74,127h-.32l0-.14.31-.08Z"/><path d="M69.64,126.42l.53-.08,0,.21-.51-.14Z"/><path d="M46.59,105.06l.08.54-.21,0c0-.17.09-.34.13-.52Z"/><path d="M74.6,127.87l-.1-.26.11-.07.19.24Z"/><path d="M83,40.14a1.93,1.93,0,0,1-.42,0s0-.17,0-.27Z"/><path d="M80.68,40.55h-.32l0-.12.34-.1Z"/><path d="M139,128.58l.43-.15,0,.21-.46-.07Z"/><path d="M49,91.61l-.46.08,0-.22.43.16Z"/><path d="M43.33,108c-.07-.15,0-.07,0,0Z"/><path d="M39.33,116.1v-.32h.17l0,.32Z"/><path d="M72.69,129.76l-.18.2-.11-.09.19-.2Z"/><path d="M82.77,129.76l-.18.2-.11-.09.19-.2Z"/><path d="M88.37,129.71l.21-.05.06.1-.24.13Z"/><path d="M115.21,147a1.34,1.34,0,0,1,.27-.07,1.07,1.07,0,0,1,.06.19l-.28.05Z"/><path d="M69.15,51.78l.13.52h-.2l.07-.53Z"/><path d="M50.06,108.28l-.1.27-.17-.08.13-.24Z"/><path d="M132.28,143.94Z"/><path d="M66.05,55.16l-.26.09-.05-.13L66,55Z"/><path d="M116.26,139.71l.52.12-.08.19Z"/><path d="M73.64,131.83H74l0,.13-.3.1Z"/><path d="M50.5,115.19h-.61l.56-.24Z"/><path d="M143.68,78.27h-.06c-.07-.14,0-.05,0,0Z"/><path d="M54.68,139.83c-.18,0-.09,0,0,0Z"/><path d="M84.81,138.92l.06.2-.1.06-.14-.24Z"/><path d="M69.64,133.62l.52-.14v.21l-.53-.07Z"/><path d="M134.06,59.56,134,60l-.36-.42,0,0h.52Z"/><path d="M148,114l.07-.63.2.6Z"/><path d="M86.44,134.81l-.14-.52h.2l-.06.53Z"/><path d="M81.33,138.06l-.46.27-.06-.2Z"/><path d="M86.44,134.82l.53-.08,0,.21-.51-.14Z"/><path d="M74.91,138.12h.31l0,.14-.31.08Z"/><path d="M83.06,135.79l.08.46-.21,0,.15-.43Z"/><path d="M90.88,61.44l.26.46L91,62Z"/><path d="M145.47,116.71h.31l0,.15-.31.07Z"/><path d="M38.13,112.33V112h.11l0,.32Z"/><path d="M39.89,117.94s.07,0,.07.08-.05.06-.08.08-.07-.06-.07-.08S39.86,118,39.89,117.94Z"/><path d="M75.58,119.06H74.49l.29-.66-.71-.75.31-.26Z"/><path d="M77.43,116.22l-.54-.69.38-.18.13.9Z"/><path d="M77.4,116.25l.67,0,0,.29-.61-.29Z"/><path d="M77,117.29l.14-.26.23.2-.24.18Z"/><path d="M74,116.41a1.25,1.25,0,0,1-.26.07s0-.12-.07-.19l.28-.05Z"/><path d="M59.15,109l.68.82-1.37.08Z"/><path d="M61.81,109.49c0,.11-.05.22,0,.05l0,0Z"/><path d="M60.58,123.59H60l.56-.24Z"/><path d="M104.34,121.28h-.53l.12-.64Z"/><path d="M103,118.63l-.44-.16c.19-.08.27-.14.3-.12S102.89,118.47,103,118.63Z"/><path d="M65.07,71l-.58-.73c.73-.13.73-.13.58.74Z"/><path d="M59,71.23l.07-.34c.07,0,.2,0,.2.07s-.06.21-.09.31Z"/><path d="M65.07,71h.56l-.08.27L65.07,71Z"/><path d="M57.33,71.37l.62.07-.6.19Z"/><path d="M63.65,69.71l.21,0,.06.1-.24.14Z"/><path class="cls-3" d="M63.15,5.44a2.32,2.32,0,0,0,.2-1.55,4.42,4.42,0,0,0-.56-1.47,1.56,1.56,0,0,0-1-.74,1.85,1.85,0,0,0-1.33.3,4.66,4.66,0,0,0-1.66,2,15.72,15.72,0,0,0-1,3,22.57,22.57,0,0,0-.54,3.29c-.1,1.11-.16,2.11-.19,3a80.42,80.42,0,0,0,.44,9c.32,3.21.73,6.49,1.22,9.82l-.21.14a20.87,20.87,0,0,0-1.85-3.76,29.05,29.05,0,0,0-2.08-2.92q-1.12-1.38-2.31-2.79c-.77-.91-1.53-1.83-2.28-2.75a32.17,32.17,0,0,1-2.09-2.92c-.23-.37-.45-.74-.66-1.1l-.69-1.13-.06,0c.12,1.06.29,2.36.5,3.89s.38,3.19.53,4.94.22,3.56.21,5.38a33.09,33.09,0,0,1-.42,5.2,16.67,16.67,0,0,1-1.32,4.4,6.9,6.9,0,0,1-2.57,3,5.46,5.46,0,0,1-.84.4,3.6,3.6,0,0,1-.94.2,2,2,0,0,1-.89-.12,1.4,1.4,0,0,1-.7-.6,1.28,1.28,0,0,1-.17-1,1.33,1.33,0,0,1,.63-.84,1,1,0,0,1,.82-.15,1.08,1.08,0,0,1,.68.49,2.18,2.18,0,0,1,.2.49A.52.52,0,0,1,42,41a.83.83,0,0,0,.54.17,1.65,1.65,0,0,0,1-.32,5.94,5.94,0,0,0,2.22-2.69A16.56,16.56,0,0,0,46.92,34a31.86,31.86,0,0,0,.36-5.15c0-1.86-.09-3.73-.23-5.61s-.32-3.72-.54-5.53-.44-3.46-.66-5c-.09-.23-.19-.5-.29-.83a3.67,3.67,0,0,1-.17-1,2.78,2.78,0,0,1,.12-1,1.31,1.31,0,0,1,.58-.75q.09.38.15.78a5.26,5.26,0,0,0,.21,1,9.6,9.6,0,0,0,.49,1.25,14.59,14.59,0,0,0,1,1.76,20.64,20.64,0,0,0,1.75,2.39c.65.75,1.31,1.52,2,2.31s1.4,1.62,2.11,2.48A28.28,28.28,0,0,1,55.85,24a17.33,17.33,0,0,1,1,1.92,18.63,18.63,0,0,1,.86,2.32l.1,0c-.15-1-.3-2.22-.47-3.53s-.3-2.63-.42-4-.21-2.69-.28-4-.08-2.52-.07-3.59c0-1.53.14-3,.29-4.3a24,24,0,0,1,.7-3.66,11.92,11.92,0,0,1,1.16-2.85A5.35,5.35,0,0,1,60.44.52a2.8,2.8,0,0,1,2-.48,2.15,2.15,0,0,1,1.52,1,2.66,2.66,0,0,1,.41,1.15,4.18,4.18,0,0,1-.07,1.22,4.88,4.88,0,0,1-.42,1.18,5.14,5.14,0,0,1-.65,1Z"/><path class="cls-3" d="M73.55,12.74,75.8,12c-.47,1.47-.92,2.89-1.34,4.27s-.78,2.64-1.09,3.79-.52,2.14-.66,3a4.5,4.5,0,0,0,0,1.89.85.85,0,0,0,1.22.59,3.83,3.83,0,0,0,1.61-1.29,16.75,16.75,0,0,0,1.81-2.73,35.07,35.07,0,0,0,1.77-3.76,43.56,43.56,0,0,0,1.49-4.35h.23c-.32,1.14-.72,2.39-1.21,3.75A35.18,35.18,0,0,1,78,21.06a18.48,18.48,0,0,1-2,3.24,4.85,4.85,0,0,1-2.28,1.78,2.05,2.05,0,0,1-1.63,0,1.81,1.81,0,0,1-.84-1,3.37,3.37,0,0,1-.15-1c0-.34,0-.69,0-1.05l-.08,0c-.19.42-.45.92-.76,1.48a14.16,14.16,0,0,1-1.07,1.66,10,10,0,0,1-1.3,1.44,4,4,0,0,1-1.47.89,2.06,2.06,0,0,1-2-.22,3.3,3.3,0,0,1-1.09-1.63,7.1,7.1,0,0,1-.1-3.41,15.74,15.74,0,0,1,1.25-3.93,14.57,14.57,0,0,1,2.2-3.46,6.17,6.17,0,0,1,2.74-2,3.8,3.8,0,0,1,1.27-.2,2.49,2.49,0,0,1,1.8.81,5.48,5.48,0,0,1,.57.77l.07,0ZM65.37,26a2.1,2.1,0,0,0,.72,1.12,1.11,1.11,0,0,0,1,.14,3.17,3.17,0,0,0,1.24-.87,10.51,10.51,0,0,0,1.29-1.69,16.92,16.92,0,0,0,1.17-2.21,15.35,15.35,0,0,0,.85-2.5,13.14,13.14,0,0,0,.38-2.52,6.36,6.36,0,0,0-.26-2.23A1.63,1.63,0,0,0,71,14.18a1.68,1.68,0,0,0-1.23-.07,4.44,4.44,0,0,0-2,1.64A13,13,0,0,0,66,18.82a15.12,15.12,0,0,0-.92,3.69A8.11,8.11,0,0,0,65.37,26Z"/><path class="cls-3" d="M86.49,6.33l-2.18,4.59L89,10.19l-.15.46-4.79.74Q83,13.94,82.15,15.81c-.58,1.25-1.06,2.32-1.45,3.23a23.06,23.06,0,0,0-.84,2.25,3.69,3.69,0,0,0-.17,1.55,1,1,0,0,0,.61.87,2.19,2.19,0,0,0,1.12.11,5.51,5.51,0,0,0,2.69-1.43,20.56,20.56,0,0,0,2.73-2.89A39.67,39.67,0,0,0,89.3,16c.77-1.22,1.41-2.3,1.92-3.26l.23.11c-.65,1.15-1.37,2.37-2.16,3.65a37.59,37.59,0,0,1-2.51,3.57A18.89,18.89,0,0,1,84,22.9a5.78,5.78,0,0,1-2.8,1.38,2.87,2.87,0,0,1-2-.38,2.35,2.35,0,0,1-1.1-1.77,4.75,4.75,0,0,1,.18-1.92,19.41,19.41,0,0,1,.88-2.39C79.56,17,80,16,80.48,15s1-2.12,1.5-3.27L80,12l.15-.46,2-.31,2.15-4.58Z"/><path class="cls-3" d="M95.85,10.31,93.12,14c-.88,1.15-1.65,2.21-2.33,3.17a29.61,29.61,0,0,0-1.62,2.51,3.7,3.7,0,0,0-.61,1.68,1.12,1.12,0,0,0,.29.85,1,1,0,0,0,.76.28,3.19,3.19,0,0,0,1.5-.43,10.37,10.37,0,0,0,1.67-1.12,17.93,17.93,0,0,0,1.67-1.51c.55-.55,1.06-1.1,1.53-1.64s.88-1,1.23-1.5.62-.82.79-1.08l3.2-4.84h2.5l-3.33,4.53c-.91,1.24-1.65,2.29-2.22,3.16a16.14,16.14,0,0,0-1.22,2.11,3.48,3.48,0,0,0-.37,1.43,1.11,1.11,0,0,0,.25.74.87.87,0,0,0,.72.31,3.48,3.48,0,0,0,1.67-.51,13.28,13.28,0,0,0,2-1.37,23.73,23.73,0,0,0,2-1.91c.67-.71,1.3-1.42,1.89-2.11s1.13-1.36,1.62-2,.86-1.11,1.13-1.5l.36.11c-.29.41-.68.94-1.17,1.57s-1,1.31-1.63,2-1.25,1.43-1.93,2.17a20,20,0,0,1-2.09,2,13.23,13.23,0,0,1-2.11,1.42,4,4,0,0,1-1.93.56,2.21,2.21,0,0,1-1.61-.57,1.93,1.93,0,0,1-.59-1.5,4.12,4.12,0,0,1,.24-1.4,5.83,5.83,0,0,1,.34-.85l-.07-.07c-.51.58-1,1.13-1.6,1.66a15.76,15.76,0,0,1-1.67,1.39,8.94,8.94,0,0,1-1.69,1A4.27,4.27,0,0,1,89,23a2.22,2.22,0,0,1-1.66-.54,1.72,1.72,0,0,1-.51-1.25,4.77,4.77,0,0,1,.5-1.95,18.84,18.84,0,0,1,1.37-2.35c.58-.86,1.28-1.84,2.09-2.92s1.7-2.32,2.67-3.72Z"/><path class="cls-3" d="M112.48,12l-5.67,5.82.06.08c.4-.35.91-.74,1.51-1.19s1.26-.9,2-1.35,1.43-.9,2.2-1.33,1.49-.8,2.21-1.12a2,2,0,0,1,.49-.5,1.26,1.26,0,0,1,.89-.07l.7.14.61.16A9.1,9.1,0,0,0,116,13.89a3.46,3.46,0,0,0-.9,1.81,1.86,1.86,0,0,0,.19,1.35,1.31,1.31,0,0,0,.93.64,2.86,2.86,0,0,0,1.09,0,5.3,5.3,0,0,0,1.08-.37c.34-.16.68-.33,1-.52l.86-.51.19.18c-.28.19-.59.4-1,.62a10.1,10.1,0,0,1-1.13.6,6.62,6.62,0,0,1-1.24.39,3.5,3.5,0,0,1-1.29,0,2.53,2.53,0,0,1-1.72-1,2.69,2.69,0,0,1-.36-2.06,3.05,3.05,0,0,1,.66-1.47l-.06-.08a27.58,27.58,0,0,0-3.66,2.06c-1.36.88-2.81,1.95-4.38,3.19a14.13,14.13,0,0,0-1.84,1.82,21.67,21.67,0,0,0-1.79,2.4l-2.32-.4c1.64-1.82,3.27-3.63,4.91-5.43s3.31-3.63,5-5.48Z"/><path class="cls-3" d="M132.28,21a24,24,0,0,1-1.91,1.47A24.29,24.29,0,0,1,128,23.93c-.88.46-1.79.89-2.74,1.28a19.56,19.56,0,0,1-2.87.93,13.43,13.43,0,0,1-2.81.38,7.67,7.67,0,0,1-2.53-.35,3.28,3.28,0,0,1-2-1.47,2.87,2.87,0,0,1-.1-2.37,7.06,7.06,0,0,1,1.95-2.89,14.1,14.1,0,0,1,3.32-2.32A14.64,14.64,0,0,1,124,15.78a7.05,7.05,0,0,1,3.54.13,2.31,2.31,0,0,1,1.23.8,1.31,1.31,0,0,1,.14,1.2,2.3,2.3,0,0,1-1.42,1.31,10.78,10.78,0,0,1-2.65.7,24.1,24.1,0,0,1-3.14.24,24.18,24.18,0,0,1-2.85-.12,7.62,7.62,0,0,0-1.13,1.35A7.11,7.11,0,0,0,117,23a4.2,4.2,0,0,0-.18.84,3.08,3.08,0,0,0,0,.81,1.63,1.63,0,0,0,.35.71,1.66,1.66,0,0,0,.74.47,6.63,6.63,0,0,0,2.91.12,18.41,18.41,0,0,0,3.76-1,25.87,25.87,0,0,0,3.94-1.84,22.74,22.74,0,0,0,3.55-2.46Zm-5-3.64a1,1,0,0,0,0-.81,1,1,0,0,0-.56-.45,3.11,3.11,0,0,0-1.75.06,12.27,12.27,0,0,0-2.13.87,14.06,14.06,0,0,0-2.08,1.32,12.32,12.32,0,0,0-1.58,1.39,14,14,0,0,0,2.07.08,13.1,13.1,0,0,0,2.5-.27,8.18,8.18,0,0,0,2.25-.77A2.42,2.42,0,0,0,127.29,17.34Z"/><path class="cls-3" d="M183.71,69.29c-.45.24-.84.43-1.16.57s-.66.28-1,.41a10.42,10.42,0,0,1-3.05.62,8.58,8.58,0,0,1-2.85-.34,6.07,6.07,0,0,1-2.36-1.33,5.67,5.67,0,0,1-1.54-2.35,5.43,5.43,0,0,1-.34-2.4A5.07,5.07,0,0,1,172,62.4a5.38,5.38,0,0,1,1.41-1.64,6.82,6.82,0,0,1,2-1.11,9.37,9.37,0,0,1,3.28-.52,13.63,13.63,0,0,1,3.62.54A16.67,16.67,0,0,1,186,61.25a18.44,18.44,0,0,1,3.49,2.59,20.77,20.77,0,0,1,3,3.54,19.66,19.66,0,0,1,2.24,4.44,18,18,0,0,1,.94,3.78,11.54,11.54,0,0,1,0,3.28,14.82,14.82,0,0,1,2,2.1A17.4,17.4,0,0,1,199,83l-.41.14a14.83,14.83,0,0,0-1.25-1.93,8.81,8.81,0,0,0-1.8-1.74,7.56,7.56,0,0,1-1.25,2.35,5,5,0,0,1-2.2,1.43,5.15,5.15,0,0,1-2.56.27,6.82,6.82,0,0,1-2.36-.85,9.39,9.39,0,0,1-2-1.62A11.46,11.46,0,0,1,183.59,79l-.06,0a6.82,6.82,0,0,1,.33,1.95,4.91,4.91,0,0,1-.29,1.77,3.85,3.85,0,0,1-1,1.46,5,5,0,0,1-1.77,1,6.77,6.77,0,0,1-3.39.34,9.94,9.94,0,0,1-5.88-3.12,7.93,7.93,0,0,1-1.64-2.64,5.62,5.62,0,0,1-.29-3.42,2.7,2.7,0,0,1,1.71-1.94,2.32,2.32,0,0,1,1.66,0,1.87,1.87,0,0,1,1.12,1.2,1.44,1.44,0,0,1-.06,1.11,1.13,1.13,0,0,0-1-.6,3.85,3.85,0,0,0-1.5.27,2.08,2.08,0,0,0-1.28,1.23,2.6,2.6,0,0,0,0,2,5.72,5.72,0,0,0,1.65,2.5,6.28,6.28,0,0,0,2.46,1.33,8.44,8.44,0,0,0,2.91.28,11.17,11.17,0,0,0,3-.64,4.23,4.23,0,0,0,1.69-1,3.32,3.32,0,0,0,.8-1.44,4.2,4.2,0,0,0,.07-1.74,9.73,9.73,0,0,0-.5-1.92l.41-.14a7.76,7.76,0,0,0,1.51,2.59,6.62,6.62,0,0,0,2.2,1.61,7,7,0,0,0,2.67.6,8.09,8.09,0,0,0,2.91-.49A4.51,4.51,0,0,0,194.54,79a19.12,19.12,0,0,0-4.75-1.77q-2.74-.65-5.74-1.2t-6-1.18a33.93,33.93,0,0,1-5.68-1.65,17.55,17.55,0,0,1-4.65-2.65,9.4,9.4,0,0,1-2.92-4.18,4.92,4.92,0,0,1-.26-3.06,2.36,2.36,0,0,1,1.44-1.68,1.53,1.53,0,0,1,1.21,0,1.36,1.36,0,0,1,.74.83,1.12,1.12,0,0,1,0,1,1.53,1.53,0,0,1-.8.61,1.17,1.17,0,0,1-.92,0,1.14,1.14,0,0,1-.61-.68,1.07,1.07,0,0,0-.45.55,2.47,2.47,0,0,0-.17.77,2.75,2.75,0,0,0,.06.81q.09.39.18.66a7.09,7.09,0,0,0,1.73,2.77,9.37,9.37,0,0,0,2.73,1.76,21.1,21.1,0,0,0,3.74,1.2c1.41.32,3,.66,4.73,1s3.5.72,5.08,1,3.08.66,4.48,1.06a29.52,29.52,0,0,1,3.92,1.38,14.55,14.55,0,0,1,3.33,2,6.46,6.46,0,0,0,.25-3.09,17.14,17.14,0,0,0-.86-3.42A17.93,17.93,0,0,0,191,66.19a18.19,18.19,0,0,0-4.61-3.92,14.73,14.73,0,0,0-5.22-1.91,10.27,10.27,0,0,0-5.13.44,8.35,8.35,0,0,0-1.81.92,6,6,0,0,0-1.47,1.36,4.53,4.53,0,0,0-.81,1.7,3.27,3.27,0,0,0,.14,1.94,5.21,5.21,0,0,0,1.38,2.12,5.63,5.63,0,0,0,2.15,1.27,7.61,7.61,0,0,0,2.72.35,10.35,10.35,0,0,0,3.06-.62c.37-.13.72-.27,1.06-.42s.69-.32,1-.49Z"/><path class="cls-3" d="M182.68,104a21.12,21.12,0,0,1-2.09-1.2,23.63,23.63,0,0,1-2.3-1.66c-.76-.63-1.51-1.31-2.23-2a19.1,19.1,0,0,1-2-2.3,13.1,13.1,0,0,1-1.44-2.44,7.94,7.94,0,0,1-.65-2.47,3.32,3.32,0,0,1,.59-2.41,2.9,2.9,0,0,1,2.15-1,7.13,7.13,0,0,1,3.42.69,13.85,13.85,0,0,1,3.42,2.18,14.52,14.52,0,0,1,2.72,3.05,7,7,0,0,1,1.24,3.31,2.34,2.34,0,0,1-.26,1.44,1.27,1.27,0,0,1-1.06.59,2.27,2.27,0,0,1-1.76-.8,11,11,0,0,1-1.66-2.17,23.8,23.8,0,0,1-1.42-2.81,25.37,25.37,0,0,1-1-2.68,7.42,7.42,0,0,0-1.67-.52,6.68,6.68,0,0,0-1.83-.11,3.38,3.38,0,0,0-.84.16,2.47,2.47,0,0,0-.73.35,1.62,1.62,0,0,0-.52.58,1.51,1.51,0,0,0-.15.87,6.79,6.79,0,0,0,1,2.73,17.89,17.89,0,0,0,2.34,3.1,25.24,25.24,0,0,0,3.21,2.94,22.24,22.24,0,0,0,3.64,2.32Zm1.44-6a1,1,0,0,0,.74-.33,1,1,0,0,0,.2-.69,2.94,2.94,0,0,0-.73-1.59,10.86,10.86,0,0,0-1.62-1.64,14.06,14.06,0,0,0-2-1.41,10.71,10.71,0,0,0-1.89-.92,14.54,14.54,0,0,0,.72,1.94,15.16,15.16,0,0,0,1.21,2.2,8.37,8.37,0,0,0,1.58,1.79A2.5,2.5,0,0,0,184.12,98Z"/><path class="cls-3" d="M184.3,114.1l-.21,2.34q-1.76-1.5-3.41-2.88c-1.11-.92-2.13-1.75-3.07-2.47s-1.78-1.31-2.5-1.77a4.36,4.36,0,0,0-1.73-.73.85.85,0,0,0-1,.89,4,4,0,0,0,.57,2,17.53,17.53,0,0,0,1.81,2.73,39,39,0,0,0,2.78,3.08,44.33,44.33,0,0,0,3.44,3.06l-.09.21c-.93-.73-1.93-1.59-3-2.57a36.59,36.59,0,0,1-3-3,19.24,19.24,0,0,1-2.21-3.1A4.81,4.81,0,0,1,172,109a2,2,0,0,1,.65-1.48,1.77,1.77,0,0,1,1.29-.38,3.08,3.08,0,0,1,1,.25l1,.43,0-.07c-.31-.34-.66-.76-1.07-1.27a14.58,14.58,0,0,1-1.11-1.63,10.37,10.37,0,0,1-.82-1.76,4,4,0,0,1-.25-1.69,2.11,2.11,0,0,1,1-1.81,3.42,3.42,0,0,1,1.93-.37,7.12,7.12,0,0,1,3.18,1.23,16.06,16.06,0,0,1,3.14,2.67,15.24,15.24,0,0,1,2.34,3.37,6.23,6.23,0,0,1,.76,3.3,3.76,3.76,0,0,1-.31,1.25,2.63,2.63,0,0,1-.62.85,2.6,2.6,0,0,1-.83.49,4.86,4.86,0,0,1-.93.23v.07Zm-9.05-12.69a2.08,2.08,0,0,0-1.31.23,1.16,1.16,0,0,0-.54.92,3.12,3.12,0,0,0,.33,1.48,10.75,10.75,0,0,0,1.05,1.84,17.87,17.87,0,0,0,1.59,1.94,15.51,15.51,0,0,0,2,1.75,12.72,12.72,0,0,0,2.17,1.32,6.25,6.25,0,0,0,2.17.63,1.62,1.62,0,0,0,1.3-.36,1.65,1.65,0,0,0,.53-1.11,4.27,4.27,0,0,0-.72-2.5,12.86,12.86,0,0,0-2.17-2.74,15.4,15.4,0,0,0-3.05-2.29A8.31,8.31,0,0,0,175.25,101.41Z"/><path class="cls-3" d="M181.58,125.42c-1-1.25-1.89-2.46-2.77-3.61s-1.68-2.19-2.42-3.11-1.4-1.66-2-2.24a3.78,3.78,0,0,0-1.46-1,1,1,0,0,0-1.37.7,3.29,3.29,0,0,0,0,1.56,10.07,10.07,0,0,0,.62,1.91,18,18,0,0,0,1,2c.38.68.77,1.32,1.16,1.92s.76,1.13,1.11,1.6.62.81.83,1l3.78,4.4-.68,2.4L176,128.54c-1-1.21-1.76-2.21-2.44-3a15.24,15.24,0,0,0-1.7-1.75,3.55,3.55,0,0,0-1.27-.74,1.1,1.1,0,0,0-.78,0,.89.89,0,0,0-.5.61,3.5,3.5,0,0,0,0,1.75,12.43,12.43,0,0,0,.78,2.26,24.4,24.4,0,0,0,1.29,2.46c.5.83,1,1.63,1.52,2.39s1,1.46,1.45,2.09.84,1.13,1.13,1.49l-.2.32c-.32-.39-.71-.91-1.19-1.55s-1-1.35-1.5-2.12-1-1.59-1.56-2.44a18.89,18.89,0,0,1-1.33-2.55,13.78,13.78,0,0,1-.79-2.41,4.18,4.18,0,0,1,0-2,2.27,2.27,0,0,1,1-1.39,2,2,0,0,1,1.6-.16,4.2,4.2,0,0,1,1.28.61,5.12,5.12,0,0,1,.72.56l.09,0c-.42-.64-.8-1.31-1.16-2a15.26,15.26,0,0,1-.88-2,9,9,0,0,1-.46-1.88,4.26,4.26,0,0,1,.12-1.72,2.25,2.25,0,0,1,1-1.46,1.74,1.74,0,0,1,1.34-.14,4.63,4.63,0,0,1,1.74,1,17.82,17.82,0,0,1,1.89,2c.68.8,1.43,1.74,2.25,2.81s1.77,2.27,2.85,3.59Z"/><path class="cls-3" d="M178.2,145.13l-2.6-4.36-2,4.33-.31-.38,2-4.4c-1-1.53-1.88-2.89-2.6-4.06s-1.35-2.17-1.89-3a20.49,20.49,0,0,0-1.4-2,3.69,3.69,0,0,0-1.2-1,1,1,0,0,0-1.07,0,2.18,2.18,0,0,0-.7.87,5.47,5.47,0,0,0-.31,3,21.45,21.45,0,0,0,.9,3.87,39.53,39.53,0,0,0,1.54,4c.59,1.31,1.14,2.44,1.65,3.4l-.22.14c-.59-1.19-1.21-2.46-1.84-3.83a38.24,38.24,0,0,1-1.58-4.07,18.56,18.56,0,0,1-.83-3.84,5.78,5.78,0,0,1,.4-3.1,3,3,0,0,1,1.44-1.47,2.35,2.35,0,0,1,2.08.07,4.59,4.59,0,0,1,1.5,1.21,19.06,19.06,0,0,1,1.5,2.06c.51.79,1.05,1.68,1.64,2.65s1.21,2,1.89,3.06l.83-1.78.3.38-.86,1.84,2.63,4.33Z"/><path class="cls-3" d="M169.71,150.73c-.56-1.42-1.08-2.82-1.56-4.18s-.92-2.61-1.34-3.72-.82-2-1.19-2.81a3.82,3.82,0,0,0-1.09-1.52.92.92,0,0,0-1.44.25,4.44,4.44,0,0,0-.52,2.6,21.61,21.61,0,0,0,.6,4,45.24,45.24,0,0,0,1.46,4.79q.92,2.55,2.08,5.12l-1.25,1.86q-1.25-3.4-2.79-6.66t-2.94-6.63a15,15,0,0,0-1.15,7.14,25.6,25.6,0,0,0,1.88,8l-.23.15a23.93,23.93,0,0,1-2-8.47,15.48,15.48,0,0,1,1.29-7.23c-.54-1.49-1.09-3-1.63-4.55a24,24,0,0,1-1.16-4.65,16.39,16.39,0,0,1,0-4.64,11,11,0,0,1,1.82-4.49,8.33,8.33,0,0,1,1.51-1.71,6.4,6.4,0,0,1,1.75-1.07,4.32,4.32,0,0,1,1.78-.33,3,3,0,0,1,1.62.51A3.14,3.14,0,0,1,166.8,125a5.13,5.13,0,0,1-1,3l-.09-.06a3,3,0,0,0,.09-2.25,3.83,3.83,0,0,0-1.51-1.75,3.4,3.4,0,0,0-1.54-.6,3.59,3.59,0,0,0-1.5.13,4.62,4.62,0,0,0-1.34.69,4.79,4.79,0,0,0-1.06,1.14,7.27,7.27,0,0,0-1.17,3.18,14,14,0,0,0,0,3.71,23.72,23.72,0,0,0,.89,4c.41,1.36.88,2.69,1.41,4s1.07,2.57,1.62,3.77,1,2.28,1.45,3.26l.1,0c-.16-.58-.35-1.27-.55-2.07a18.11,18.11,0,0,1-.44-2.5,11.35,11.35,0,0,1,0-2.54,4.94,4.94,0,0,1,.8-2.25,2.43,2.43,0,0,1,1.32-1.12,1.66,1.66,0,0,1,1.34.28,3.62,3.62,0,0,1,1.06,1.18,16.15,16.15,0,0,1,1,2.14c.37.92.81,2.06,1.31,3.43s1.16,3,1.95,5Z"/><path class="cls-3" d="M107,197.53a3,3,0,0,0,0-.43c0-.12,0-.26-.09-.43a2.72,2.72,0,0,0-.51-1.19,2.48,2.48,0,0,0-.86-.66,2.64,2.64,0,0,0-1.06-.22,4.89,4.89,0,0,0-1.14.1,4.63,4.63,0,0,0-1.86.87,6.53,6.53,0,0,0-1.54,1.68,7.07,7.07,0,0,0-.94,2.2,5.6,5.6,0,0,0,0,2.41,2.22,2.22,0,0,0,1.22,1.84,4.11,4.11,0,0,0,2.31.07,9.69,9.69,0,0,0,3.36-1.47,20.43,20.43,0,0,0,3.45-2.9,26.36,26.36,0,0,0,3.15-4,27.38,27.38,0,0,0,2.46-4.67,21.94,21.94,0,0,0,1.37-5,14.64,14.64,0,0,0-.13-5,8.52,8.52,0,0,0-.65-1.94,5.81,5.81,0,0,0-1.14-1.63,4.12,4.12,0,0,0-1.65-1,4.07,4.07,0,0,0-2.15-.06,7.33,7.33,0,0,0-3.16,1.47,10,10,0,0,0-2.34,2.63,10.85,10.85,0,0,0-1.32,3.24,7.65,7.65,0,0,0-.08,3.29,2.81,2.81,0,0,0,1.27,2,3.32,3.32,0,0,0,2.41.29l.12.42a5.26,5.26,0,0,1-3.5-.22,3.76,3.76,0,0,1-1.69-2.79,7.2,7.2,0,0,1,.09-2.9,10,10,0,0,1,1.36-3.25,10.67,10.67,0,0,1,2.73-2.86,10.27,10.27,0,0,1,4.16-1.77,7,7,0,0,1,3.24,0,6.33,6.33,0,0,1,2.36,1.19,6.16,6.16,0,0,1,1.54,1.85,7.41,7.41,0,0,1,.76,2,12.13,12.13,0,0,1,0,4.76,22,22,0,0,1-1.63,5,28.61,28.61,0,0,1-2.81,4.8,31.78,31.78,0,0,1-3.57,4.15,23.54,23.54,0,0,1-3.92,3.11,11.79,11.79,0,0,1-3.82,1.62,5.22,5.22,0,0,1-3.53-.25,3.39,3.39,0,0,1-1.64-2.47,4.76,4.76,0,0,1,.12-2.43,6,6,0,0,1,1.19-2.14,7.93,7.93,0,0,1,2-1.65,7.39,7.39,0,0,1,2.47-1,4.3,4.3,0,0,1,2.51.17,2.71,2.71,0,0,1,1.52,2c0,.14.06.29.09.46a3.71,3.71,0,0,1,.07.5Z"/><path class="cls-3" d="M79.15,186.37a7,7,0,0,1,2-1.47,4.4,4.4,0,0,1,2.15-.49,3.24,3.24,0,0,1,1.72.52A3.55,3.55,0,0,1,86.12,186h.07a10.86,10.86,0,0,1,1.46-2.88,14.87,14.87,0,0,1,2.45-2.76,13.45,13.45,0,0,1,3.07-2,7,7,0,0,1,3.37-.74,3,3,0,0,1,2.31,1,3.51,3.51,0,0,1,.7,2.45,5.41,5.41,0,0,1-.48,1.83A10.46,10.46,0,0,1,97.88,185a16.16,16.16,0,0,1-1.75,2A14.38,14.38,0,0,1,94,188.78a10.57,10.57,0,0,1-2.43,1.2,7,7,0,0,1-2.53.39,3,3,0,0,1-2.26-1,3.46,3.46,0,0,1-.8-2.27,2.43,2.43,0,0,0-.71-1.57,2.61,2.61,0,0,0-1.91-.79,4,4,0,0,0-2.06.46,7.5,7.5,0,0,0-1.85,1.34Zm18.48-6.23a2.57,2.57,0,0,0-.3-1.49,1.21,1.21,0,0,0-1.06-.59,4,4,0,0,0-2,.44,9,9,0,0,0-1.9,1.3,13,13,0,0,0-1.73,1.87,17,17,0,0,0-1.41,2.19,14.21,14.21,0,0,0-1,2.22,7.28,7.28,0,0,0-.41,2,2.13,2.13,0,0,0,.33,1.3,1.35,1.35,0,0,0,1.15.58,3.37,3.37,0,0,0,1.65-.42,10.28,10.28,0,0,0,1.81-1.22,12.81,12.81,0,0,0,1.76-1.77,19,19,0,0,0,1.51-2.11,11.83,11.83,0,0,0,1.09-2.2A7.09,7.09,0,0,0,97.63,180.14Z"/><path class="cls-3" d="M87.38,178.69c-.76.71-1.62,1.48-2.57,2.31l-2.91,2.53c-1,.86-2,1.71-2.92,2.55s-1.84,1.64-2.63,2.39l-2.12-.61,6.45-5.15-.05-.09-2.16,1.51a25.14,25.14,0,0,1-2.72,1.64,13.35,13.35,0,0,1-3,1.15,5.34,5.34,0,0,1-2.86,0,2.23,2.23,0,0,1-1.25-.83,1.6,1.6,0,0,1-.18-1.43,3,3,0,0,1,.69-1.08,15.47,15.47,0,0,1,1.23-1.18c.45-.38.9-.75,1.35-1.09s.81-.64,1.07-.86l0-.09a28.31,28.31,0,0,1-2.39,1.72,24.56,24.56,0,0,1-2.83,1.58,13.65,13.65,0,0,1-2.89,1,5.1,5.1,0,0,1-2.58,0,2.17,2.17,0,0,1-1.37-.92,1.86,1.86,0,0,1-.12-1.5,3.42,3.42,0,0,1,.8-1.28,14.83,14.83,0,0,1,1.5-1.4c.57-.47,1.18-.94,1.82-1.41s1.24-.93,1.8-1.37A15.32,15.32,0,0,0,68,175.54a2.66,2.66,0,0,0,.74-1.09.9.9,0,0,0-.64-1.16,4.27,4.27,0,0,0-2.16.09,16,16,0,0,0-3,1.15,33.45,33.45,0,0,0-3.55,2q-1.91,1.25-3.93,2.81l-.24-.22q2-1.54,3.9-2.82a36.45,36.45,0,0,1,3.61-2.14A14.28,14.28,0,0,1,65.91,173a4.78,4.78,0,0,1,2.48-.06A2.08,2.08,0,0,1,69.82,174a2.35,2.35,0,0,1,.09,1.66,3.7,3.7,0,0,1-.83,1.37,13.52,13.52,0,0,1-1.49,1.39c-.58.47-1.18.92-1.81,1.37s-1.23.87-1.79,1.29-1,.81-1.42,1.17a2.35,2.35,0,0,0-.72,1,.83.83,0,0,0,.07.76,1.06,1.06,0,0,0,.59.37,3.85,3.85,0,0,0,1.77,0,11.1,11.1,0,0,0,2.34-.76,25.47,25.47,0,0,0,2.68-1.38,32,32,0,0,0,2.81-1.83,32.59,32.59,0,0,0,2.72-2.19,25.89,25.89,0,0,0,2.39-2.42l2.23.64c-1,1-2,1.93-3.11,2.88l-3,2.61c-.93.8-1.73,1.5-2.38,2.1a3.89,3.89,0,0,0-1.12,1.43.88.88,0,0,0,.7,1.22,4,4,0,0,0,2.13-.08,14.08,14.08,0,0,0,2.67-1,25,25,0,0,0,2.87-1.7q1.45-1,2.79-2c.89-.7,1.7-1.38,2.41-2s1.3-1.23,1.74-1.7Z"/><path class="cls-3" d="M65.41,173.23c-.93.47-2,1-3.12,1.49l-3.51,1.6-3.52,1.62c-1.16.53-2.22,1.05-3.2,1.55L50.2,178.3l7.65-3.11,0-.1-2.51.83a24.2,24.2,0,0,1-3.07.81,14.08,14.08,0,0,1-3.15.27,5.47,5.47,0,0,1-2.75-.81,2.19,2.19,0,0,1-1-1.15,1.62,1.62,0,0,1,.24-1.42,2.93,2.93,0,0,1,1-.84A14.24,14.24,0,0,1,48.1,172c.54-.24,1.08-.47,1.61-.67l1.27-.52,0-.1a27.94,27.94,0,0,1-2.79,1,22.89,22.89,0,0,1-3.16.71,13.85,13.85,0,0,1-3,.16,5.25,5.25,0,0,1-2.48-.74,2.16,2.16,0,0,1-1-1.28,1.86,1.86,0,0,1,.32-1.47,3.4,3.4,0,0,1,1.12-1,17.33,17.33,0,0,1,1.83-.91c.69-.29,1.41-.57,2.15-.84s1.45-.54,2.12-.8a17.52,17.52,0,0,0,1.75-.79,2.74,2.74,0,0,0,1-.83.86.86,0,0,0,.14-.73.92.92,0,0,0-.42-.57,4.2,4.2,0,0,0-2.1-.52,15.58,15.58,0,0,0-3.17.25,35.91,35.91,0,0,0-4,1c-1.45.44-3,1-4.57,1.58l-.16-.28q2.34-.92,4.53-1.59a37.59,37.59,0,0,1,4.07-1,15.39,15.39,0,0,1,3.36-.28,4.76,4.76,0,0,1,2.4.65,2.09,2.09,0,0,1,1.07,1.43,2.42,2.42,0,0,1-.39,1.62,3.67,3.67,0,0,1-1.18,1.07,13,13,0,0,1-1.83.92c-.68.28-1.39.54-2.12.79l-2.08.74a17.08,17.08,0,0,0-1.7.72,2.19,2.19,0,0,0-1,.72.8.8,0,0,0-.16.74,1.17,1.17,0,0,0,.46.53,4,4,0,0,0,1.7.5,10.33,10.33,0,0,0,2.46-.06,26.66,26.66,0,0,0,3-.56q1.58-.39,3.21-1a31.84,31.84,0,0,0,3.23-1.33,28.87,28.87,0,0,0,3-1.64l2,1.24c-1.22.66-2.48,1.28-3.79,1.88L51,172.31c-1.12.5-2.08.95-2.87,1.35a3.93,3.93,0,0,0-1.49,1,.88.88,0,0,0,.33,1.37,4,4,0,0,0,2.07.53,13.35,13.35,0,0,0,2.86-.24,24.31,24.31,0,0,0,3.23-.82c1.11-.36,2.2-.75,3.25-1.16s2-.84,2.89-1.27,1.59-.81,2.15-1.15Z"/><path class="cls-3" d="M23.84,151.06a7,7,0,0,1,2.47.34,4.56,4.56,0,0,1,1.9,1.14,3.3,3.3,0,0,1,.87,1.57,3.67,3.67,0,0,1,0,1.55l.05.05a10.47,10.47,0,0,1,3.05-1.05,15,15,0,0,1,3.68-.29,13.46,13.46,0,0,1,3.63.67,7,7,0,0,1,2.93,1.81,3,3,0,0,1,1,2.33,3.56,3.56,0,0,1-1.21,2.25,5.36,5.36,0,0,1-1.61,1,10.7,10.7,0,0,1-2.3.66,16,16,0,0,1-2.66.25,15.12,15.12,0,0,1-2.78-.23,10.64,10.64,0,0,1-2.58-.82,7,7,0,0,1-2.09-1.48,3,3,0,0,1-.95-2.27,3.41,3.41,0,0,1,1-2.19,2.42,2.42,0,0,0,.57-1.62,2.57,2.57,0,0,0-.82-1.89,4.09,4.09,0,0,0-1.81-1.11,7.79,7.79,0,0,0-2.25-.32Zm17.62,8.35a2.62,2.62,0,0,0,.82-1.28,1.22,1.22,0,0,0-.35-1.17,4.08,4.08,0,0,0-1.72-1,8.49,8.49,0,0,0-2.27-.38,13,13,0,0,0-2.54.14,16.08,16.08,0,0,0-2.53.6,14.46,14.46,0,0,0-2.25.91,7.27,7.27,0,0,0-1.68,1.16,2.11,2.11,0,0,0-.67,1.16,1.36,1.36,0,0,0,.43,1.21,3.32,3.32,0,0,0,1.48.84,9.59,9.59,0,0,0,2.14.39,13.19,13.19,0,0,0,2.5-.06,19.57,19.57,0,0,0,2.56-.46,12.35,12.35,0,0,0,2.31-.83A6.76,6.76,0,0,0,41.46,159.41Z"/><path class="cls-3" d="M0,141.8c1.77,0,3.65,0,5.65,0s4,.08,6,.13l5.73.13c1.85,0,3.52,0,5,0s2.78-.08,3.81-.18a5.4,5.4,0,0,0,2.1-.51,1,1,0,0,0,.43-.51.74.74,0,0,0-.12-.63,4,4,0,0,0-1.73-1.35,18.71,18.71,0,0,0-3.42-1.12,32.78,32.78,0,0,0-4.06-.66,31.49,31.49,0,0,0-4-.17l0-.32c.44,0,1,0,1.6,0s1.29.05,2,.1,1.41.14,2.15.24,1.46.22,2.16.38a18.9,18.9,0,0,1,3.6,1.09A4.72,4.72,0,0,1,29,140.15a2.56,2.56,0,0,1,.52,1.71A1.58,1.58,0,0,1,28.8,143a3.25,3.25,0,0,1-1.29.48c-.47.07-.89.12-1.28.14v.08q.86.13,1.86.33a17.6,17.6,0,0,1,2,.51,8.73,8.73,0,0,1,1.8.84,4.33,4.33,0,0,1,1.34,1.32,2.51,2.51,0,0,1,.41,2.12,2.73,2.73,0,0,1-1.2,1.61,6.69,6.69,0,0,1-3.37.91,15.85,15.85,0,0,1-4.25-.39,17.43,17.43,0,0,1-4-1.44,6.83,6.83,0,0,1-2.7-2.27,2.37,2.37,0,0,1,.81-3.49l-.05-.09-17.57.16Zm19.49,2.78a3.7,3.7,0,0,0-1.12,1.06,1.3,1.3,0,0,0,.17,1.48,3.29,3.29,0,0,0,1.3,1.09,10.37,10.37,0,0,0,2.09.78,17.28,17.28,0,0,0,2.55.46,19.64,19.64,0,0,0,2.64.09,13.39,13.39,0,0,0,2.38-.28,5.33,5.33,0,0,0,1.8-.68,2.51,2.51,0,0,0,.91-.93,1.1,1.1,0,0,0-.14-1.15,3,3,0,0,0-1.24-1,12.58,12.58,0,0,0-2.08-.8,17.23,17.23,0,0,0-2.56-.55,25.31,25.31,0,0,0-2.65-.24,13.69,13.69,0,0,0-2.36.11A4.41,4.41,0,0,0,19.49,144.58Z"/><path class="cls-3" d="M4.49,134.42a1.11,1.11,0,0,1,0-.89,1.17,1.17,0,0,1,.64-.65,1.21,1.21,0,0,1,.91-.06,1.17,1.17,0,0,1,.69,1.51,1.17,1.17,0,0,1-.64.65,1.2,1.2,0,0,1-.91.06A1.14,1.14,0,0,1,4.49,134.42Zm7-.88,5.78,1.07c1.57.29,2.86.52,3.89.67a21.33,21.33,0,0,0,2.39.27,2.91,2.91,0,0,0,1.27-.17c.58-.26.75-.62.55-1.08A3.69,3.69,0,0,0,24.19,133a14,14,0,0,0-2.07-1.27,24.69,24.69,0,0,0-2.58-1.13c-.93-.35-1.84-.66-2.72-.93s-1.71-.49-2.48-.66a12.77,12.77,0,0,0-1.86-.28l0-.34c.56.06,1.25.18,2.07.35s1.68.39,2.59.67,1.83.58,2.76.93a22,22,0,0,1,2.59,1.16,12.93,12.93,0,0,1,2.1,1.37,4.49,4.49,0,0,1,1.25,1.52,1.74,1.74,0,0,1-.78,2.47,4.23,4.23,0,0,1-1.61.35,14.28,14.28,0,0,1-2.36-.14c-.95-.12-2.13-.3-3.53-.55s-3.12-.54-5.15-.86Z"/><path class="cls-3" d="M4,124.42l4.89,1.39-1.51-4.54.48.07L9.38,126q2.68.63,4.68,1.17c1.33.37,2.47.66,3.42.89a22.65,22.65,0,0,0,2.36.46,3.66,3.66,0,0,0,1.56-.1,1,1,0,0,0,.76-.74,2.17,2.17,0,0,0-.09-1.12,5.52,5.52,0,0,0-1.85-2.42,21.27,21.27,0,0,0-3.3-2.2A37.84,37.84,0,0,0,13.07,120c-1.33-.56-2.51-1-3.54-1.35l.07-.25q1.86.68,4,1.53a35.87,35.87,0,0,1,3.94,1.88,19.26,19.26,0,0,1,3.23,2.22,5.9,5.9,0,0,1,1.84,2.54,2.92,2.92,0,0,1-.05,2.06A2.36,2.36,0,0,1,21,130.05a4.53,4.53,0,0,1-1.92.13,18.13,18.13,0,0,1-2.5-.46c-.92-.23-1.92-.51-3-.82s-2.25-.62-3.47-.92l.62,1.85-.48-.07-.64-1.92-4.88-1.36Z"/><path class="cls-3" d="M6.36,114.53c1.38.66,2.71,1.32,4,2s2.46,1.26,3.52,1.78,2,.94,2.79,1.25a3.82,3.82,0,0,0,1.84.36.92.92,0,0,0,.87-1.17A4.34,4.34,0,0,0,18,116.49,20.84,20.84,0,0,0,14.84,114a44.66,44.66,0,0,0-4.34-2.5c-1.61-.82-3.29-1.59-5-2.31L5.12,107c2.16,1.08,4.35,2.07,6.59,3s4.46,1.82,6.68,2.82a15,15,0,0,0-4.05-6,25.47,25.47,0,0,0-6.81-4.51L7.6,102a24.12,24.12,0,0,1,7.26,4.81,15.49,15.49,0,0,1,4,6.14l4.31,2.21a23.68,23.68,0,0,1,4,2.6,16.42,16.42,0,0,1,3.17,3.39,11,11,0,0,1,1.75,4.52,8,8,0,0,1,.06,2.28,6.34,6.34,0,0,1-.54,2,4.31,4.31,0,0,1-1.08,1.46,3.41,3.41,0,0,1-4.44-.06,5.09,5.09,0,0,1-1.35-2.84l.11,0a3,3,0,0,0,1.47,1.71,3.82,3.82,0,0,0,2.29.24,3.39,3.39,0,0,0,1.53-.62,3.46,3.46,0,0,0,1-1.12,4,4,0,0,0,.5-1.42,4.54,4.54,0,0,0,0-1.56,7.17,7.17,0,0,0-1.32-3.12,14.06,14.06,0,0,0-2.57-2.68,25.69,25.69,0,0,0-3.36-2.29c-1.23-.7-2.49-1.35-3.77-1.94s-2.54-1.14-3.76-1.64-2.31-1-3.29-1.39l-.06.09c.52.3,1.12.68,1.82,1.13a17,17,0,0,1,2,1.52,10.91,10.91,0,0,1,1.74,1.86,5,5,0,0,1,.95,2.19,2.41,2.41,0,0,1-.2,1.72,1.62,1.62,0,0,1-1.17.7,3.65,3.65,0,0,1-1.58-.12,15.31,15.31,0,0,1-2.21-.87c-.9-.41-2-.94-3.31-1.6s-2.93-1.43-4.86-2.33Z"/></g></g></svg>