<svg xmlns="http://www.w3.org/2000/svg" viewBox="0 0 19.82 105.27"><defs><style>.cls-2{fill:#231f20;}</style></defs><g id="Layer_2" data-name="Layer 2"><g id="Layer_1-2" data-name="Layer 1"><path class="cls-2" d="M5.14,8.06H5A.34.34,0,0,1,4.83,8l0,0c.15-.22.32-.07.52,0,0,0,0,0,0,0A.46.46,0,0,1,5.14,8.06Z"/><path class="cls-2" d="M5.14,8.06H5A.34.34,0,0,1,4.83,8l0,0c.15-.22.32-.07.52,0,0,0,0,0,0,0A.46.46,0,0,1,5.14,8.06Z"/><path class="cls-2" d="M3.53,25.72a3.86,3.86,0,0,1-1.28-3.17,3.84,3.84,0,0,1,1.28-3.16,4.74,4.74,0,0,1,3.1-1,4.77,4.77,0,0,1,3.09,1A3.79,3.79,0,0,1,11,22.55a3.81,3.81,0,0,1-1.3,3.17,4.83,4.83,0,0,1-3.09,1A4.8,4.8,0,0,1,3.53,25.72ZM4.72,24a3.19,3.19,0,0,0,1.91.5,3.12,3.12,0,0,0,1.9-.5,1.91,1.91,0,0,0,0-2.91,3,3,0,0,0-1.9-.51,3.12,3.12,0,0,0-1.91.51,1.91,1.91,0,0,0,0,2.91Z"/><path class="cls-2" d="M11,32.87s0,.09,0,.19H8.73a2.62,2.62,0,0,0,0-.37,2.45,2.45,0,0,0,0-.25,1.8,1.8,0,0,0-.84-1.75,3.41,3.41,0,0,0-1.47-.25H2.53V28.28h8.23v2H9.32a4.41,4.41,0,0,1,1.13.87,2.33,2.33,0,0,1,.5,1.57Z"/><path class="cls-2" d="M10.76,34.35v2.18H2.53V34.35Zm1,2.18V34.35h2v2.18Z"/><path class="cls-2" d="M3.53,45.48a3.86,3.86,0,0,1-1.28-3.17,3.84,3.84,0,0,1,1.28-3.16,4.74,4.74,0,0,1,3.1-1,4.77,4.77,0,0,1,3.09,1A3.79,3.79,0,0,1,11,42.31a3.81,3.81,0,0,1-1.3,3.17,4.83,4.83,0,0,1-3.09,1A4.8,4.8,0,0,1,3.53,45.48Zm1.19-1.73a3.12,3.12,0,0,0,1.91.51,3,3,0,0,0,1.9-.51,1.68,1.68,0,0,0,.67-1.44,1.72,1.72,0,0,0-.67-1.46,3,3,0,0,0-1.9-.51,3.12,3.12,0,0,0-1.91.51,1.75,1.75,0,0,0-.67,1.46A1.71,1.71,0,0,0,4.72,43.75Z"/><path class="cls-2" d="M9.15,47.21h1.53v1.15H13v2.13h-2.3v1.34H9.15V50.49H4.8c-.34,0-.55,0-.63.13a1.44,1.44,0,0,0-.12.78v.21c0,.07,0,.15,0,.22H2.45l0-1a2.81,2.81,0,0,1,.53-2.09,1.59,1.59,0,0,1,1.14-.36H9.15Z"/><path class="cls-2" d="M2.38,57.08a2.78,2.78,0,0,1,.19-1,2.18,2.18,0,0,1,.52-.78A2.49,2.49,0,0,1,4,54.81a3.52,3.52,0,0,1,1.23-.2,3.5,3.5,0,0,1,1.09.16,2.43,2.43,0,0,1,.89.46,2.11,2.11,0,0,1,.61.77,2.79,2.79,0,0,1,0,2.17,2.33,2.33,0,0,1-.6.78,2.59,2.59,0,0,1-.89.46,4,4,0,0,1-1.1.15A3.49,3.49,0,0,1,4,59.38a2.53,2.53,0,0,1-.88-.5,2.34,2.34,0,0,1-.58-.78A2.61,2.61,0,0,1,2.38,57.08ZM5.2,58.9a3.53,3.53,0,0,0,.88-.11,2.06,2.06,0,0,0,.72-.32,1.59,1.59,0,0,0,.48-.55,1.93,1.93,0,0,0,.17-.84,1.61,1.61,0,0,0-.69-1.39A2.31,2.31,0,0,0,6,55.37a3.31,3.31,0,0,0-.83-.1,3.36,3.36,0,0,0-.92.12,2.23,2.23,0,0,0-.71.34,1.53,1.53,0,0,0-.47.57,1.78,1.78,0,0,0-.16.78,1.64,1.64,0,0,0,.19.83,1.62,1.62,0,0,0,.51.56,2.14,2.14,0,0,0,.72.32A3.34,3.34,0,0,0,5.2,58.9Z"/><path class="cls-2" d="M2.53,61.31v-.62H7.86v.62H7.12a3.69,3.69,0,0,1,.64.76A1.76,1.76,0,0,1,8,63a2.46,2.46,0,0,1-.17.91,1.61,1.61,0,0,1-.59.71,1.46,1.46,0,0,1-.6.24q-.3,0-.63,0H2.53V64.3H6A1.55,1.55,0,0,0,7.09,64a1.34,1.34,0,0,0,.36-1.06,1.46,1.46,0,0,0-.09-.52A1.37,1.37,0,0,0,7.13,62a1.26,1.26,0,0,0-.33-.32,1.47,1.47,0,0,0-.39-.21,1.9,1.9,0,0,0-.49-.11,4.27,4.27,0,0,0-.52,0Z"/><path class="cls-2" d="M.43,67.11v-.62H7.86v.62H6.93v0a1.89,1.89,0,0,1,.46.34,2.1,2.1,0,0,1,.34.46,2.83,2.83,0,0,1,.21.52A2.49,2.49,0,0,1,8,69a2.45,2.45,0,0,1-.22,1.1,2.07,2.07,0,0,1-.59.75,2.54,2.54,0,0,1-.89.43,4.36,4.36,0,0,1-1.1.13,4.26,4.26,0,0,1-1.08-.14,2.9,2.9,0,0,1-.9-.44A2.21,2.21,0,0,1,2.38,69a2.46,2.46,0,0,1,.26-1.09,1.81,1.81,0,0,1,.74-.81Zm4.74,0a3.08,3.08,0,0,0-.86.12,2.35,2.35,0,0,0-.71.35,1.87,1.87,0,0,0-.48.57,1.58,1.58,0,0,0-.18.76,1.72,1.72,0,0,0,.19.83,1.7,1.7,0,0,0,.52.58,2.33,2.33,0,0,0,.77.33,3.55,3.55,0,0,0,.94.08,2.68,2.68,0,0,0,.89-.14,1.94,1.94,0,0,0,.66-.38,1.77,1.77,0,0,0,.4-.58,1.89,1.89,0,0,0,.14-.72,1.71,1.71,0,0,0-.17-.77,1.66,1.66,0,0,0-.48-.57,2.41,2.41,0,0,0-.72-.35A3.29,3.29,0,0,0,5.17,67.11Z"/><path class="cls-2" d="M2.53,73.36v-.62H7.86v.62h-1v0a1.72,1.72,0,0,1,.89.66A2,2,0,0,1,8,75.12H7.34a1.88,1.88,0,0,0-.17-.87,1.44,1.44,0,0,0-.47-.54A2.15,2.15,0,0,0,6,73.43a4.64,4.64,0,0,0-.85-.07Z"/><path class="cls-2" d="M2.53,76.23H7.86v.62H2.53Zm6.5,0h.91v.68H9Z"/><path class="cls-2" d="M2.53,79v-.61H7.86V79H7.12a4,4,0,0,1,.64.77,1.7,1.7,0,0,1,.25,1,2.51,2.51,0,0,1-.17.92,1.61,1.61,0,0,1-.59.71,1.31,1.31,0,0,1-.6.23,4.26,4.26,0,0,1-.63,0H2.53V82H6a1.6,1.6,0,0,0,1.08-.32,1.36,1.36,0,0,0,.36-1.06,1.51,1.51,0,0,0-.09-.53,1.32,1.32,0,0,0-.23-.42,1.29,1.29,0,0,0-.33-.33,1.2,1.2,0,0,0-.39-.2,2.49,2.49,0,0,0-.49-.12L5.4,79Z"/><path class="cls-2" d="M6.18,87.93a1.89,1.89,0,0,0,.94-.56,1.56,1.56,0,0,0,.33-1,1.63,1.63,0,0,0-.19-.82A1.82,1.82,0,0,0,6.74,85,2.25,2.25,0,0,0,6,84.66a3.22,3.22,0,0,0-.81-.11,3.77,3.77,0,0,0-.83.1,2.14,2.14,0,0,0-.72.32,1.68,1.68,0,0,0-.51.55,1.64,1.64,0,0,0-.19.83,1.56,1.56,0,0,0,.38,1.1A1.71,1.71,0,0,0,4.37,88v.66a3.07,3.07,0,0,1-.81-.26,2.22,2.22,0,0,1-.63-.46,2,2,0,0,1-.4-.68,2.48,2.48,0,0,1-.15-.89,2.68,2.68,0,0,1,.22-1.11,2,2,0,0,1,.59-.76A2.4,2.4,0,0,1,4.08,84a4,4,0,0,1,1.11-.15,3.73,3.73,0,0,1,1.06.16,3,3,0,0,1,.9.47,2.37,2.37,0,0,1,.63.77A2.39,2.39,0,0,1,8,86.35a2.34,2.34,0,0,1-.45,1.49,2,2,0,0,1-1.38.72Z"/><path class="cls-2" d="M2.53,90H7.86v.62H2.53Zm6.5,0h.91v.68H9Z"/><path class="cls-2" d="M.43,92.86v-.62H7.86v.62H6.93v0a1.89,1.89,0,0,1,.46.34,1.94,1.94,0,0,1,.34.47,2.36,2.36,0,0,1,.21.52,2.32,2.32,0,0,1,.07.52,2.45,2.45,0,0,1-.22,1.1,2.07,2.07,0,0,1-.59.75,2.38,2.38,0,0,1-.89.43,4.36,4.36,0,0,1-1.1.13A4.26,4.26,0,0,1,4.13,97a2.9,2.9,0,0,1-.9-.44,2.21,2.21,0,0,1-.85-1.8,2.46,2.46,0,0,1,.26-1.09,1.87,1.87,0,0,1,.74-.81Zm4.74,0a3.08,3.08,0,0,0-.86.12,2.35,2.35,0,0,0-.71.35,1.87,1.87,0,0,0-.48.57,1.58,1.58,0,0,0-.18.76,1.72,1.72,0,0,0,.19.83,1.7,1.7,0,0,0,.52.58,2.33,2.33,0,0,0,.77.33,3.17,3.17,0,0,0,.94.08,2.45,2.45,0,0,0,.89-.14A1.94,1.94,0,0,0,6.91,96a1.77,1.77,0,0,0,.4-.58,1.89,1.89,0,0,0,.14-.72,1.71,1.71,0,0,0-.17-.77,1.66,1.66,0,0,0-.48-.57A2.41,2.41,0,0,0,6.08,93,3.72,3.72,0,0,0,5.17,92.86Z"/><path class="cls-2" d="M2.53,98.55H9.94v.62H2.53Z"/><path class="cls-2" d="M5.05,101.13a2.75,2.75,0,0,0-.82.11,2.21,2.21,0,0,0-.67.33,1.59,1.59,0,0,0-.45.57A1.86,1.86,0,0,0,3.26,104a1.53,1.53,0,0,0,.91.58v.69a3.79,3.79,0,0,1-.71-.3,2.17,2.17,0,0,1-.57-.47,1.92,1.92,0,0,1-.37-.66,2.58,2.58,0,0,1-.14-.88,2.63,2.63,0,0,1,.22-1.1,2.06,2.06,0,0,1,.59-.77,2.75,2.75,0,0,1,.89-.44,4.22,4.22,0,0,1,1.09-.14,3.35,3.35,0,0,1,1.11.17,2.78,2.78,0,0,1,.9.48,2.29,2.29,0,0,1,.61.77,2.4,2.4,0,0,1,.22,1,2.15,2.15,0,0,1-.76,1.73,3.35,3.35,0,0,1-2.2.62Zm.52,3.48a2.48,2.48,0,0,0,.73-.11,1.73,1.73,0,0,0,.6-.32,1.52,1.52,0,0,0,.4-.53,1.7,1.7,0,0,0,.15-.73,1.67,1.67,0,0,0-.15-.73,1.57,1.57,0,0,0-.42-.53,2.08,2.08,0,0,0-.59-.36,2.52,2.52,0,0,0-.72-.17Z"/><path class="cls-2" d="M6.39,5.22c-.1,0-.18-.11-.13-.23a.21.21,0,0,1,.29-.09.17.17,0,0,1,.1.25C6.6,5.27,6.5,5.26,6.39,5.22Z"/><path class="cls-2" d="M5.85,5.77c-.13,0-.21-.12-.16-.26a.21.21,0,0,1,.39.15A.16.16,0,0,1,5.85,5.77Z"/><path class="cls-2" d="M5.5,7c-.14,0-.25-.11-.2-.27s.16-.15.28-.11.23.12.21.26A.2.2,0,0,1,5.5,7Z"/><path class="cls-2" d="M7.86,7.81a1.7,1.7,0,0,1-.79-.59C6.9,7,7,6.77,7.3,6.74a1.16,1.16,0,0,1,1,.25,6.16,6.16,0,0,0,.65.44c.2.14.17.34-.06.36A8.79,8.79,0,0,1,7.86,7.81Z"/><path class="cls-2" d="M5,8.22c-.11-.05-.2-.15-.15-.26l0,0c.15-.22.32-.07.52,0,0,0,0,0,0,0C5.28,8.23,5.18,8.31,5,8.22Z"/><path class="cls-2" d="M7.3,10.68a.23.23,0,0,1-.14-.32.2.2,0,0,1,.27-.07.22.22,0,0,1,.14.27C7.5,10.68,7.41,10.73,7.3,10.68Z"/><path class="cls-2" d="M1.52,17.34l.19-.63a8.19,8.19,0,0,0,.36-2.51v-.33l.32-.11,1-.34A13.23,13.23,0,0,1,.49,8.08,10,10,0,0,1,0,5.14,5.22,5.22,0,0,1,1.09,1.76,5.09,5.09,0,0,1,5.79,0c1.88.19,3.23,1,5.06,2.53a77.35,77.35,0,0,1,6.31,5.77,9.63,9.63,0,0,1,2.54,3.84,2.88,2.88,0,0,1-1,3.15,7,7,0,0,1-4,1.29l-.45,0,0-.45a10.15,10.15,0,0,0-1.54-4.32l-.38-.65.76,0a1.15,1.15,0,0,0,.49-.09l.95.4a.85.85,0,0,0,.69-1.56L11.73,8.38a4.58,4.58,0,0,1-1.52-1.12A3.64,3.64,0,0,0,9,6.16a5.1,5.1,0,0,1-1-.63A5.71,5.71,0,0,0,7.12,5C6.5,4.71,6,4.33,5.93,3.52a.27.27,0,0,0-.07-.2,3.42,3.42,0,0,1-.71-1.26c-.06-.14-.11-.31-.31-.24s-.15.22-.12.37a8.32,8.32,0,0,0,1,2.67c.05.07.12.13.06.23A.21.21,0,0,1,5.58,5a4.09,4.09,0,0,1-.82-1A2.36,2.36,0,0,0,3.55,2.75a2.08,2.08,0,0,1-.43-.3,9.87,9.87,0,0,1-1-1c-.11-.11-.23-.29-.41-.16s-.11.3,0,.48A5.56,5.56,0,0,0,3,3.48,8.19,8.19,0,0,1,4.46,5.13a1,1,0,0,0,.72.6.24.24,0,0,1,.17.35c-.08.15-.24.09-.36,0A3.88,3.88,0,0,1,3.48,5a1.2,1.2,0,0,0-.9-.59.84.84,0,0,1-.27-.13A7,7,0,0,1,1,3.52a.18.18,0,0,0-.28,0,.26.26,0,0,0,0,.29.76.76,0,0,0,.18.25c.48.34,1,.7,1.45,1a1.17,1.17,0,0,1,.53.5,2.48,2.48,0,0,0,1.38,1.3c.21.07.5.11.57.48a2.84,2.84,0,0,1-1.63-.48c-.27-.14-.41-.16-.57.12s-.37.5-.75.34c-.16-.06-.29.05-.36.2a.34.34,0,0,0,.07.4.76.76,0,0,0,1,.14c.13-.08.26-.17.41-.11a5.16,5.16,0,0,1,1.65.71,2.49,2.49,0,0,0,.81.59.54.54,0,0,1,.3.36A2.72,2.72,0,0,1,5.58,11a.3.3,0,0,1-.17.16,1.17,1.17,0,0,0-.42,2,3.2,3.2,0,0,0,.82.6c.14.08.29.2.44,0s0-.28,0-.41a1.85,1.85,0,0,1,1.27-2.19,4.73,4.73,0,0,0,1.94-.83,1.15,1.15,0,0,1,.39-.21A7.28,7.28,0,0,1,11,10.06l.36.13a12.8,12.8,0,0,1,2.16,6v.44Z"/></g></g></svg>