<svg xmlns="http://www.w3.org/2000/svg" viewBox="0 0 353.45 66.56"><defs><style>.cls-1{fill:#231f20;}</style></defs><g id="Layer_2" data-name="Layer 2"><g id="Layer_1-2" data-name="Layer 1"><path class="cls-1" d="M27.06,49.29a2.19,2.19,0,0,1,0,.36,1.41,1.41,0,0,1-.29.69l-.08-.05c-.75-.52-.24-1.1.09-1.76l.19.06A1.9,1.9,0,0,1,27.06,49.29Z"/><path class="cls-1" d="M27.06,49.29a2.19,2.19,0,0,1,0,.36,1.41,1.41,0,0,1-.29.69l-.08-.05c-.75-.52-.24-1.1.09-1.76l.19.06A1.9,1.9,0,0,1,27.06,49.29Z"/><path class="cls-1" d="M86.35,54.69Q82.84,59,75.72,59T65.1,54.69a16,16,0,0,1-3.5-10.4,16.12,16.12,0,0,1,3.5-10.36q3.5-4.38,10.62-4.38t10.63,4.38a16.12,16.12,0,0,1,3.49,10.36A16,16,0,0,1,86.35,54.69Zm-5.78-4a10.5,10.5,0,0,0,1.69-6.41,10.43,10.43,0,0,0-1.69-6.39,6.42,6.42,0,0,0-9.75,0,10.36,10.36,0,0,0-1.71,6.39,10.43,10.43,0,0,0,1.71,6.41,6.41,6.41,0,0,0,9.75,0Z"/><path class="cls-1" d="M110.37,29.79l.62,0v7.4c-.46,0-.86-.08-1.22-.1s-.64,0-.86,0c-2.91,0-4.86.94-5.86,2.84a11,11,0,0,0-.83,4.91V58.07H94.94V30.44h6.9v4.82a14.87,14.87,0,0,1,2.91-3.78,7.94,7.94,0,0,1,5.27-1.7Z"/><path class="cls-1" d="M122.65,27.14h-7.33V20.48h7.33Zm-7.33,3.3h7.33V58.07h-7.33Z"/><path class="cls-1" d="M152.69,54.69Q149.2,59,142.07,59t-10.62-4.32a16,16,0,0,1-3.5-10.4,16.07,16.07,0,0,1,3.5-10.36q3.5-4.38,10.62-4.38t10.62,4.38a16.12,16.12,0,0,1,3.5,10.36A16,16,0,0,1,152.69,54.69Zm-5.78-4a10.49,10.49,0,0,0,1.7-6.41,10.43,10.43,0,0,0-1.7-6.39,6.42,6.42,0,0,0-9.75,0,10.36,10.36,0,0,0-1.71,6.39,10.43,10.43,0,0,0,1.71,6.41,6.41,6.41,0,0,0,9.75,0Z"/><path class="cls-1" d="M158.52,35.84V30.69h3.85V23h7.15v7.7H174v5.15h-4.49v14.6a3.36,3.36,0,0,0,.43,2.12q.44.42,2.64.42l.7,0,.72,0v5.39l-3.42.13q-5.13.18-7-1.77a5.3,5.3,0,0,1-1.22-3.83v-17Z"/><path class="cls-1" d="M191.66,58.56a9.52,9.52,0,0,1-3.23-.63,7.21,7.21,0,0,1-2.63-1.76A8.41,8.41,0,0,1,184,53.23a11.75,11.75,0,0,1-.66-4.12,12.49,12.49,0,0,1,.52-3.68,8.45,8.45,0,0,1,1.56-3,7.3,7.3,0,0,1,2.59-2,8.29,8.29,0,0,1,3.63-.75,8.38,8.38,0,0,1,3.67.75,7.45,7.45,0,0,1,2.59,2,8.24,8.24,0,0,1,1.54,3,13.45,13.45,0,0,1,.5,3.7,12.11,12.11,0,0,1-.59,3.88,8.78,8.78,0,0,1-1.67,3,7.49,7.49,0,0,1-2.63,1.92A8.41,8.41,0,0,1,191.66,58.56Zm6.09-9.45a12.21,12.21,0,0,0-.35-3,7.11,7.11,0,0,0-1.07-2.4,5.12,5.12,0,0,0-1.87-1.61,6.07,6.07,0,0,0-2.8-.59,5.63,5.63,0,0,0-2.78.64A5.5,5.5,0,0,0,187,43.87a7.55,7.55,0,0,0-1.07,2.43,11.45,11.45,0,0,0-.35,2.81,11.33,11.33,0,0,0,.4,3.06,7.21,7.21,0,0,0,1.16,2.41,5.11,5.11,0,0,0,1.9,1.55,6,6,0,0,0,2.63.56,5.63,5.63,0,0,0,2.78-.64,5.37,5.37,0,0,0,1.89-1.71,7.9,7.9,0,0,0,1.07-2.42A11.33,11.33,0,0,0,197.75,49.11Z"/><path class="cls-1" d="M205.84,58.07h-2.07V40.16h2.07v2.49a13.26,13.26,0,0,1,2.58-2.15,5.93,5.93,0,0,1,3.2-.83,8.14,8.14,0,0,1,3.07.57,5.29,5.29,0,0,1,2.39,2,4.46,4.46,0,0,1,.78,2,18.23,18.23,0,0,1,.12,2.13V58.07H215.9V46.38a5.32,5.32,0,0,0-1.07-3.63,4.53,4.53,0,0,0-3.56-1.21,5.16,5.16,0,0,0-1.76.29,5.87,5.87,0,0,0-1.44.78A5.21,5.21,0,0,0,207,43.72a5,5,0,0,0-.69,1.31,6.69,6.69,0,0,0-.38,1.66c0,.53-.07,1.11-.07,1.73Z"/><path class="cls-1" d="M225.31,65.13h-2.07v-25h2.07V43.3h.07a6.22,6.22,0,0,1,1.16-1.55,6.65,6.65,0,0,1,1.56-1.14,8.68,8.68,0,0,1,1.74-.7,6.85,6.85,0,0,1,1.77-.24,8.48,8.48,0,0,1,3.7.73,6.82,6.82,0,0,1,2.5,2,8.08,8.08,0,0,1,1.44,3,14.65,14.65,0,0,1,.45,3.7,13.09,13.09,0,0,1-.49,3.6,8.77,8.77,0,0,1-1.47,3,7.12,7.12,0,0,1-2.49,2.08,7.58,7.58,0,0,1-3.54.78,8.32,8.32,0,0,1-3.65-.85,6.47,6.47,0,0,1-2.75-2.51Zm0-15.95a9.76,9.76,0,0,0,.42,2.89,7.34,7.34,0,0,0,1.19,2.39,5.8,5.8,0,0,0,1.9,1.62,5.21,5.21,0,0,0,2.54.61,5.8,5.8,0,0,0,2.79-.64,5.56,5.56,0,0,0,1.95-1.75,7.48,7.48,0,0,0,1.11-2.57,12,12,0,0,0,.28-3.17,8.81,8.81,0,0,0-.47-3,6.39,6.39,0,0,0-1.3-2.2A5.46,5.46,0,0,0,233.78,42a6.14,6.14,0,0,0-2.42-.47,5.61,5.61,0,0,0-2.59.59,5.38,5.38,0,0,0-1.9,1.61,7.16,7.16,0,0,0-1.16,2.42A10.81,10.81,0,0,0,225.31,49.18Z"/><path class="cls-1" d="M246.3,58.07h-2.07V40.16h2.07v3.35h.07a6,6,0,0,1,2.23-3,6.85,6.85,0,0,1,3.62-.85v2.25a6.13,6.13,0,0,0-2.91.55,4.91,4.91,0,0,0-1.81,1.59,6.44,6.44,0,0,0-.94,2.37,15.6,15.6,0,0,0-.26,2.86Z"/><path class="cls-1" d="M255.85,36.25V33.17h2.28v3.08Zm.1,21.82V40.16H258V58.07Z"/><path class="cls-1" d="M265.39,58.07h-2.07V40.16h2.07v2.49A13.26,13.26,0,0,1,268,40.5a6,6,0,0,1,3.2-.83,8.19,8.19,0,0,1,3.08.57,5.27,5.27,0,0,1,2.38,2,4.46,4.46,0,0,1,.78,2,18.23,18.23,0,0,1,.12,2.13V58.07h-2.07V46.38a5.37,5.37,0,0,0-1.07-3.63,4.57,4.57,0,0,0-3.57-1.21,5.2,5.2,0,0,0-1.76.29,5.87,5.87,0,0,0-1.44.78,5.16,5.16,0,0,0-1.08,1.11,5,5,0,0,0-.7,1.31,7.17,7.17,0,0,0-.38,1.66c0,.53-.07,1.11-.07,1.73Z"/><path class="cls-1" d="M295.24,45.79a6.06,6.06,0,0,0-1.9-3.13,5.22,5.22,0,0,0-3.43-1.12,5.36,5.36,0,0,0-2.73.66,5.67,5.67,0,0,0-1.87,1.74,8,8,0,0,0-1.07,2.46,11.2,11.2,0,0,0-.34,2.75,11.66,11.66,0,0,0,.33,2.77,7.41,7.41,0,0,0,1,2.42,5.29,5.29,0,0,0,4.63,2.35,5.3,5.3,0,0,0,3.72-1.28,5.89,5.89,0,0,0,1.78-3.53h2.22a10.47,10.47,0,0,1-.89,2.72,7.3,7.3,0,0,1-1.55,2.11,6.8,6.8,0,0,1-2.27,1.36,9.63,9.63,0,0,1-6.71-.24,7,7,0,0,1-2.56-2,8.47,8.47,0,0,1-1.48-3,13.4,13.4,0,0,1-.49-3.7,11.8,11.8,0,0,1,.54-3.58,9.48,9.48,0,0,1,1.57-3,7.65,7.65,0,0,1,2.58-2.09,7.75,7.75,0,0,1,3.54-.78,8,8,0,0,1,5,1.49,6.89,6.89,0,0,1,2.4,4.63Z"/><path class="cls-1" d="M302,36.25V33.17h2.29v3.08Zm.11,21.82V40.16h2.07V58.07Z"/><path class="cls-1" d="M311.77,65.13H309.7v-25h2.07V43.3h.07A6.22,6.22,0,0,1,313,41.75a6.65,6.65,0,0,1,1.56-1.14,8.68,8.68,0,0,1,1.74-.7,6.85,6.85,0,0,1,1.77-.24,8.48,8.48,0,0,1,3.7.73,6.82,6.82,0,0,1,2.5,2,8.08,8.08,0,0,1,1.44,3,14.65,14.65,0,0,1,.45,3.7,13.09,13.09,0,0,1-.49,3.6,8.77,8.77,0,0,1-1.47,3,7.12,7.12,0,0,1-2.49,2.08,7.58,7.58,0,0,1-3.54.78,8.32,8.32,0,0,1-3.65-.85,6.47,6.47,0,0,1-2.75-2.51Zm0-15.95a9.76,9.76,0,0,0,.42,2.89,7.34,7.34,0,0,0,1.19,2.39,5.8,5.8,0,0,0,1.9,1.62,5.21,5.21,0,0,0,2.54.61,5.8,5.8,0,0,0,2.79-.64,5.56,5.56,0,0,0,1.95-1.75,7.48,7.48,0,0,0,1.11-2.57,11.61,11.61,0,0,0,.27-3.17,8.82,8.82,0,0,0-.46-3,6.39,6.39,0,0,0-1.3-2.2A5.46,5.46,0,0,0,320.24,42a6.14,6.14,0,0,0-2.42-.47,5.61,5.61,0,0,0-2.59.59,5.38,5.38,0,0,0-1.9,1.61,7.16,7.16,0,0,0-1.16,2.42A10.81,10.81,0,0,0,311.77,49.18Z"/><path class="cls-1" d="M330.9,58.07V33.17H333v24.9Z"/><path class="cls-1" d="M339.54,49.6a9.88,9.88,0,0,0,.38,2.75,6.8,6.8,0,0,0,1.13,2.25,5.42,5.42,0,0,0,1.88,1.52,5.82,5.82,0,0,0,2.63.57,5.74,5.74,0,0,0,3.49-1.07,5.16,5.16,0,0,0,1.94-3h2.32a11,11,0,0,1-1,2.37,7.14,7.14,0,0,1-1.55,1.9,6.64,6.64,0,0,1-2.22,1.27,8.92,8.92,0,0,1-3,.45,8.75,8.75,0,0,1-3.7-.73,7,7,0,0,1-2.56-2,8.47,8.47,0,0,1-1.49-3,13.61,13.61,0,0,1-.48-3.69,11.8,11.8,0,0,1,.57-3.7,9.42,9.42,0,0,1,1.62-3,7.54,7.54,0,0,1,2.58-2,7.75,7.75,0,0,1,3.46-.75,7.16,7.16,0,0,1,5.81,2.54q2.11,2.55,2.07,7.39Zm11.69-1.73a8.24,8.24,0,0,0-.36-2.47,5.78,5.78,0,0,0-1.07-2A5.35,5.35,0,0,0,348,42a5.84,5.84,0,0,0-2.46-.5,5.41,5.41,0,0,0-2.44.52,5.69,5.69,0,0,0-1.8,1.38,7.17,7.17,0,0,0-1.19,2,9.22,9.22,0,0,0-.59,2.42Z"/><path class="cls-1" d="M17.54,45.09c-.15.35-.38.61-.77.44a.67.67,0,0,1-.31-1,.6.6,0,0,1,.84-.33C17.69,44.41,17.66,44.75,17.54,45.09Z"/><path class="cls-1" d="M19.38,46.93c-.13.42-.4.69-.87.51a.6.6,0,0,1-.32-.85.63.63,0,0,1,.81-.46A.59.59,0,0,1,19.38,46.93Z"/><path class="cls-1" d="M23.44,48.11c-.15.44-.36.83-.92.66s-.49-.53-.35-.94.38-.78.88-.71A.69.69,0,0,1,23.44,48.11Z"/><path class="cls-1" d="M26.23,40.17a6,6,0,0,1-2,2.67c-.89.55-1.51.24-1.6-.8a3.89,3.89,0,0,1,.85-3.27,21,21,0,0,0,1.45-2.21c.48-.65,1.16-.55,1.24.21A33.27,33.27,0,0,1,26.23,40.17Z"/><path class="cls-1" d="M27.59,49.84c-.17.36-.49.67-.85.5l-.08-.05c-.75-.52-.24-1.1.09-1.76l.19.06C27.62,48.82,27.9,49.17,27.59,49.84Z"/><path class="cls-1" d="M35.86,42c-.21.43-.58.71-1.08.46a.63.63,0,0,1-.23-.89.71.71,0,0,1,.89-.46C35.86,41.38,36,41.67,35.86,42Z"/><path class="cls-1" d="M58.21,61.47l-2.1-.66a26.37,26.37,0,0,0-8.43-1.18l-1.12,0-.36-1.07c-.38-1.17-.77-2.33-1.14-3.46-4.55,4.27-10.56,7.57-17.93,9.8a33.94,33.94,0,0,1-9.88,1.64A17.29,17.29,0,0,1,5.92,62.89C1.44,59.21-.56,53.76.14,47.12c.65-6.32,3.49-10.85,8.49-17A262,262,0,0,1,28,9C33.15,4.09,37.23,1.37,40.88.41A9.66,9.66,0,0,1,51.46,3.88c2.52,3.06,4,7.75,4.34,13.57l.08,1.5-1.5.09c-4.23.27-8.84,1.93-14.51,5.2L37.66,25.5,37.59,23a4.07,4.07,0,0,0-.32-1.65c.48-1.15.95-2.25,1.35-3.19a2.86,2.86,0,0,0-1.73-3.83,2.63,2.63,0,0,0-.91-.15,2.86,2.86,0,0,0-2.6,1.66L28.15,27.17a15.35,15.35,0,0,1-3.77,5.09c-1.37,1.27-3,2.38-3.7,4.19a17.2,17.2,0,0,1-2.1,3.4,21.48,21.48,0,0,0-1.71,2.79c-1.05,2.11-2.34,4-5,4a1.07,1.07,0,0,0-.69.24A11.42,11.42,0,0,1,6.9,49.27c-.44.18-1,.38-.8,1s.75.5,1.24.38a27.23,27.23,0,0,0,9-3.52c.24-.16.45-.41.78-.18a.68.68,0,0,1-.23.81,13.92,13.92,0,0,1-3.46,2.78,7.84,7.84,0,0,0-4.15,4,6.72,6.72,0,0,1-1,1.46A40.11,40.11,0,0,1,5,59.35c-.37.36-1,.75-.55,1.36s1,.36,1.61.08a18.72,18.72,0,0,0,5.67-4.3,25.63,25.63,0,0,1,5.53-4.91c.88-.55,1.86-1.12,2-2.4a.8.8,0,0,1,1.17-.58c.51.28.31.81.12,1.2a13.37,13.37,0,0,1-3.76,5.08,4.06,4.06,0,0,0-2,3,2.5,2.5,0,0,1-.45.93,23.63,23.63,0,0,1-2.55,4.34.62.62,0,0,0,0,.94.82.82,0,0,0,1,.1,2.47,2.47,0,0,0,.84-.6C14.75,62,16,60.42,17,58.73A4,4,0,0,1,18.63,57,8.28,8.28,0,0,0,23,52.32c.26-.7.38-1.69,1.61-1.91.18,2.1-.71,3.81-1.6,5.47-.48.89-.53,1.39.41,1.92s1.67,1.23,1.14,2.52c-.21.52.16,1,.65,1.2a1.14,1.14,0,0,0,1.36-.24A2.54,2.54,0,0,0,27,57.83c-.27-.44-.56-.88-.37-1.38.73-1.87,1-4,2.4-5.53a8.57,8.57,0,0,0,2-2.74,1.78,1.78,0,0,1,1.23-1,8.67,8.67,0,0,1,4.61.62,1,1,0,0,1,.55.56,3.93,3.93,0,0,0,6.73,1.43,11.5,11.5,0,0,0,2-2.75c.25-.47.65-1,.14-1.5s-.94-.11-1.4,0c-2.81,1-6.81-1.35-7.34-4.26a15.87,15.87,0,0,0-2.79-6.52,3.32,3.32,0,0,1-.69-1.31,24.34,24.34,0,0,1-.28-3.81,8.91,8.91,0,0,1,.45-1.21c6.66-3.94,13.46-7.15,20.31-7.25l1.46,0Z"/></g></g></svg>