<svg xmlns="http://www.w3.org/2000/svg" viewBox="0 0 148.39 29.82"><defs><style>.cls-2{fill:none;stroke:#000;stroke-miterlimit:10;stroke-width:0.25px;}</style></defs><g id="Layer_2" data-name="Layer 2"><g id="Layer_1-2" data-name="Layer 1"><path d="M7.24,24.09c.37-.26-1.84-.22-2.82-.55A7.45,7.45,0,0,1,2.13,22,7.33,7.33,0,0,1,.57,19.44,10.32,10.32,0,0,1,0,15.85a11,11,0,0,1,.45-3.21A7.54,7.54,0,0,1,1.81,10,6.37,6.37,0,0,1,4.07,8.26a7.35,7.35,0,0,1,3.17-.65,8.56,8.56,0,0,1,3.2.65c1.08.54,4.17,2.39,2.26,1.75,3,1.92,7.21,4.46,1.35,2.61,6.24,3.16,9.17,4.72.43,3.23,8.74,2.66,9.07,3.25-.51,3.38,9.27.8,6.86,1.35-1.46,2.59,7.59-.41,3.13.55-2.3,1.68C14.25,23,9.59,23.85,7.24,24.09Zm5.31-8.24c7.2,1,4.89-.27-.3-2.59,4.89,1.13,1.77-.56-.93-2.1,2,.49-.55-.86-1.63-1.41a7.36,7.36,0,0,0-2.45-.51,5,5,0,0,0-2.43.56,4.77,4.77,0,0,0-1.64,1.48,6.53,6.53,0,0,0-.94,2.11,10,10,0,0,0-.3,2.46,9.85,9.85,0,0,0,.35,2.67,6.61,6.61,0,0,0,1,2.1A17.75,17.75,0,0,0,5,22c1,.29,3.26.3,2.29.49,2.64-.19,6.61-.72,2.43-.56,5.24-.74,8.36-1.29,1.65-1.49,7.26-.61,8.67-1,.93-2.12C20.23,18.47,19.75,17.89,12.55,15.85Z"/><path d="M19.61,23.66c9.41-2.91,7.89-2.64-1.81,0,9.7-2.64,9.71-3.82,0-7.81,9.71,1.66,3.37-4.93,0-7.82,3.37,2.89,5.7,3.82,1.81,0,3.89,3.82,6,7,0,2.18,6.37,4.44,6.14,3.46,2.25-1.87,4.75,4.79,5.48,4.94,2.79-.73,3.79,5.67,4.84,7,2.69.5,2.85,6.8,3.67,8.83,2.08,1.74,1.85,7.46,2.15,8.55.68,1.73,1.49,7,1.68,7.64.1,1.86,1.58,5.84,1.88,6.43,0,5.11,1.88,1.5,1.79,1.66,0,5.11,1.79-3.45,1.62-3.43-1.81,0,3.43-3.43,3.56-3.61,0-5.09,3.56,1.27,3.15.66,0-5.1,3.15,5.61,2.43,4.08-.93-3.17,3,6.88,1.87,5.29-3.11-1.06,4.18,6.35,3.74,6.11-1.54.26,4.89,6,4.77,6.16-1.25.68,5.7,5.72,5.88,6.13-.95,1,6.63,5.45,7.06,6-.6,1.15,7.55,5.12,8.2,5.67-.34,1.45,8.51,4.49,9.14,4.92-.06,1.51,9.2,3.54,10,4.23,0,4.21C29.6,20.22,29,20.75,19.61,23.66Z"/><path d="M36.6,29.82c-3.24-6.79-3.89-7-1.81,0-2.08-7-2.49-9.32,0-5.65-2.49-4.12-2.49-4.54,0-10.49C32.3,19,33.07,14.87,34.79,8c-1.72,6.84-.82,6.51,1.81,0-2.63,6.51-3.57,9.64,0,2.75q-5.35,10.34.06,0c-3.54,6.76-2.89,5.52,1-1.36C34.06,16,35,14.6,39,8.43c-3.58,5.93-2.52,4.63,1.52-.61-3.44,5.08-2.43,4.14,1.54-.21C39.26,12,41,11.12,45.32,8.25,43.79,10,43.08,11,43.39,11.3s2.08-.07,4.12-1.32c-1.65,1.76-3.44,2.88-3.43,3.37s3,.4,4.68-.76c-1.5,1.74-5.17,2.83-5.35,3.39s3.72.42,5.74-.16c-2,1.09-6.75,2.05-7,2.53s1.78.64,6.57.61c-9.81.9-11,1.23-1.28,2.64-10.17-.88-11.49-.87-2.17,1.81-9.81-2.43-11.19-2.74-3.1.68-8.51-3.42-9.31-3.75-3.18-.74-6.33-3.11-6.57-3.24-2.4-2.19-4.2-1.1-4.05-.83,0,4.33C32.55,20.81,33.36,23,36.6,29.82Zm0-13.91c-4.18,3.83-4.19,3.95.36,2.52C32.43,20,32.49,20,38,20.51c-5.45-.46-5.26-.4,1.66,1.42-6.8-1.76-6.32-1.64,2.22.53-8.29-2.17-7.41-2.07,2.43-.56-9.55-1.67-8.65-1.73,1.7-1.52-10.12-.56-9.21-.83,1-2.25-10,.86-8.9.28.24-2.76-9.16,2.26-7.86,1.33-.41-2.61-7.71,3.2-7.11,2.41-1.13-1.92C39.17,14.6,38.91,14.35,44,9.65c-5.79,4.4-6.8,4.93-2.11-.41-5.48,5.34-6.84,6.66-2.26.51-5.07,6.41-6.13,7.85-1.66,1.41-4.68,6.72-5.27,7.75-1,2.11C32.63,19.13,32.42,19.6,36.6,15.91Z"/><path d="M54.91,23.66c1.72-1.56-1.68-.93-3.59-.49.57-.54,1.47-.71,1.78.49-.31-1.2-2.27-1.81-3.5-2.78,1.22-1.6,6.62-3.75,3.5-5,3.12-1,.38-2.69-1.85-4.68,3.21-.9,4.26-2.12,1.85-3.14,2.32,1.07,5.33,1.51,1.81,0,3.52,1.51,4.77,4.35,0,2.93,4.77,1.42,4.88,1.43.06,0,5.19.56,6.11-.14,2-2.61,5.26,1.79,7.41,2.4,3.15-.74,5,3.14,6.1,4.8,0,2,5.58,2.83,3.77,2.37-2.53.49,5.5,2.29,4.37,2.46-1.58,1.38,5.45,1.82,4.45,2.45-.82,2.07,5.09,1.34,4.1,2-.23,2.49,5.21-.13,2,.43-2.3,1.46,4.18.05,6.09.45,2.3,2.37,3.79-.77.06.86-2.25,2.35C55.17,21.92,56.63,22.1,54.91,23.66Z"/><path d="M63.24,4.62c3.18,3.68,1.54-.43,0-2.68,1.54,2.25,3.51,2.79,2,0,1.52,2.79,2.9,6.92,0,2.68C68.13,8.86,66.42,8.3,63.24,4.62Zm.09,19c4.43-4.1,6.48-7.19,0-7.81,6.48-1.49,5-3.83,0-7.82,5,4,6.18,4.36,1.81,0,4.37,4.36,5.49,6.49,0,7.82,5.49.4,3.94,3.27,0,7.81C69.08,19.12,67.76,19.56,63.33,23.66Z"/><path d="M71.57,23.66c.62-5.37-.1-5.25-1.81,0,1.71-5.25,2-7.75,0-7.81,2-1.08,1.83-2.85,0-7.82,1.83,5,2.43,5.07,1.81,0,.62,5.07.6,6.16,0,2.18.76,3.81,1.09,3.23,2.25-1.87-.72,4.83-.18,4.35,2.79-.73-2.28,5.08-1.81,5,2.68.5-3.9,4.74-3.84,5.11,2.09,1.74-5.62,3.82-5.88,4.16.67,1.73-6.51,2.78-6.82,3,.11,1.86-6.93,1.34-6.67,2,0,5.11-6.67-1.62-4.6.84,0,5.11-4.6-4.27-5.92-4.67-1.81,0-4.11-4.67-5.83-7,0-5.09-5.83-3.13-6-3.7,0-5.1-6,1.1-5.71.66-.94-3.17-5.1,3.45-5.51,3.4-3.1-1.06-2.93,4.46-3.18,4.61-1.54.26-1.86,4.43-2.07,4.63-1.25.68-1,4.07-1.12,4.26-1,1-.25,3.43-.34,3.58-.6,1.15.21,2.57.16,2.68-.33,1.45.48,1.36.47,1.44-.06,1.51.53,0,.59.4,0,4.21C72.16,16.43,72.19,18.29,71.57,23.66Z"/><path d="M97.61,13c7.14-.51,4.94-1-1.66-2.73,5.82,1.1.66.84-3-1,3.8,1.45-1.55,1.34-4.38,1.19,1.64.48,3.77.56,2-.61,1.39,1.39-4.08,1.72-5.23,2,.15.35,3.52.39,3.6-.44-.3,1.15-5.31,1.69-5.79,2-.14.35,3.6.36,4.85.11-1.34.6-5.77,1.08-5.9,1.43s3.68.48,5.6,1c-1.92-.14-5.59.15-5.49.52s3.72.72,5.78,1.89c-2-.8-4.77-.63-4.54-.25.44.35,3.7.85,5.46,2.37-1.51-1.16-3.27-1-3.13-.62.89.23,3.81.61,4.76,2.11-.49-1.24-1.14-1.19-1.49-.64,1.61-.18,4.4-.29,3.9,1.2.76-1.93,5.87-3.16,3.25-1.12,3.72-3,7.23-5.05,1.55-3.08,5.79-2.62,8.18-3,1.93,0,6.18-2.67,4.27-1.32-.77,2.37,4.65-2.89,2.26-1.21-1.36,1.84,2.84-2.32.22-.86-2,1.19.94-1.59-2.15-1.05-2.63.43-.13-1.11-2.38-1.23-3.77-1.21-.23-.52-.35-.48.54.57A18.87,18.87,0,0,0,85,20.93c-.56-.47.36-.45,2.52.79-2.5-1.67-5.11-2.61-5.57-3.09s1.38-.48,4.27.48c-3-1.39-5.74-2.09-5.92-2.57s2.45-.71,5.5-.66c-3-.45-5.77-.71-5.63-1.16s3.36-1,6.1-2c-2.62.54-5.08.55-4.65.1s4.27-1.22,6-2.74c-1.32,1.12-3.35,1.1-3.06.65,1-.36,5.63-.87,5.31-2.48.89,1.33.09,1.27-1.12.62,2.72.19,7.42.39,4.21-1.3,3.93,2.05,10.56,2.9,4.39,1.3,7.25,2.43,9.62,3.26,2.1,4C107.07,12.79,104.88,12.91,97.61,13Z"/><path d="M103.49,4.62c4.6,4.29,3.16,1.3,0-2.68,3.16,4,4.73,4.43,2,0,2.74,4.43,3.88,7.3,0,2.68C109.36,9.24,108.09,8.91,103.49,4.62Zm.09,19c2.88-4.12,6.15-9.29,0-7.81,6.15-3.43,5.87-4.75,0-7.82,5.87,3.07,6.78,3.19,1.81,0,5,3.19,5.14,4.35,0,7.82,5.14-1.81,2.44,3.26,0,7.81C107.83,19.11,106.46,19.54,103.58,23.66Z"/><path d="M112,29.82c-.1-.93-1.81-.95-1.81,0,0-.95.48-8.81,0-5.65.48-6.77,1.81-11.29,0-10.49,1.81-1.7,1.69-2.35,0-5.65,1.69,3.3,2.1,3.29,1.81,0,.29,3.29.35,3.89,0,2.75.35,1.14.36,1.14.06,0,.34,1.07.4.94,1-1.36-.47,2.16-.35,2,1.36-1-1.51,2.89-1.31,2.71,1.52-.61-2.59,3.26-2.33,3.11,1.54-.21-3.4,3.32-2.7,3.14,3.23.64-5.36,2.77-4.82,2.89,2.19,1.73-6.6,1.68-6.18,2,1.25,2.61-7.23.17-6.6.78.39,3.23-7-1.48-6.11-.49-.42,3.14-6-2.59-5.33-1.39-1.28,2.64-4.74-3.12-4.82-2.28-2.17,1.81-3.78-3.51-4.69-3.65-3.1.68-3-4.33-4-5.62-3.18-.74C112.52,18,112.06,16,112,21.16c-.18-5.47-.28-1.35,0,4.33C111.75,22.66,111.93,28.89,112,29.82Zm0-13.91c.18-2.87,0-2.25.36,2.52-.21-4.4-.16-3.43,1,2.08-.91-5.12-.54-4,1.66,1.42-1.64-5.15-1-4.38,2.22.53-2.35-4.91-1.75-4.81,2.43-.56-3.46-4.64-3.41-5.24,1.7-1.52-4.69-4.35-5.13-5.21,1-2.25-5.93-3.67-6.53-4.41.24-2.76-6.78-2.33-7.17-2.75-.41-2.61-6.93-.6-7.25-.82-1.13-1.92-6.39.81-6.74.73-1.69-1.19-5.37,1.78-5.74,1.83-2.11-.41-4,2.24-4.26,2.38-2.26.51-2.24,2-2.38,2.13-1.66,1.41-.85.89-1,1.05-1,2.11C112.37,12.43,112.21,12.74,112,15.91Z"/><path d="M128.71,23.66c-1.45-.95-5.05-5.1,0-5.63-5.05-3.94-5.24-6.8,0-10.46-5.24-.7-1.83-4.48,0-5.63-1.83,1.15.55.71,1.81,0-1.26.71-4.22,4.24,0,5.63-4.22,3.53-4,6.72,0,10.46-4,1.3-.78,5.16,0,5.63C129.74,23.19,127.26,22.71,128.71,23.66Z"/><path d="M136.26,16.27c-.89.66-.21,1.57.33,2.4-.1.66.55,1.41,1,2A4.65,4.65,0,0,0,139.21,22a5.12,5.12,0,0,0,2.3.5,4.93,4.93,0,0,0,3-.94,4.47,4.47,0,0,0,1.69-2.65h2a10.3,10.3,0,0,1-.88,2.06A6.07,6.07,0,0,1,146,22.59a5.63,5.63,0,0,1-1.93,1.1,7.83,7.83,0,0,1-2.59.4,7.59,7.59,0,0,1-3.23-.64,6,6,0,0,1-2.23-1.73c-.62-.75-1.91-1.91-1.3-2.6-1.15-1.23-2.51-2.53-.42-3.21-2.09-1.39-2-2.39.49-3.23-1.89-1-.37-1.83,1.42-2.64-.62-.62,1.19-1.33,2.25-1.78a6.53,6.53,0,0,1,3-.65,6.24,6.24,0,0,1,5.07,2.22c1.22,1.48,1.83,3.63,1.81,6.44h-6.07C139.29,16.27,135.37,16.11,136.26,16.27Zm10.2-1.51a7.17,7.17,0,0,0-.32-2.15,4.83,4.83,0,0,0-.94-1.75,4.35,4.35,0,0,0-1.55-1.18,5,5,0,0,0-2.14-.44,4.66,4.66,0,0,0-2.13.45c-.69.31-1.68.74-1.57,1.21-.95.51-1.81,1.09-1,1.75-1.27.6-1.56,1.28-.51,2.11-1.13-.13,2.55,0,5.1,0Z"/><circle class="cls-2" cx="141.71" cy="2.5" r="2.37"/><path d="M140.83,1.25H142a1.06,1.06,0,0,1,.47.09.61.61,0,0,1,.35.6.7.7,0,0,1-.09.37.87.87,0,0,1-.27.23.5.5,0,0,1,.23.16.62.62,0,0,1,.08.32v.34a.55.55,0,0,0,0,.21c0,.08.05.14.11.16v.06h-.43a.24.24,0,0,1,0-.09.75.75,0,0,1,0-.2l0-.42a.35.35,0,0,0-.18-.33.71.71,0,0,0-.3,0h-.76V3.79h-.34Zm1.11,1.16a.65.65,0,0,0,.37-.09.38.38,0,0,0,.14-.35.37.37,0,0,0-.19-.37.68.68,0,0,0-.27-.05h-.82v.86Z"/></g></g></svg>