<svg xmlns="http://www.w3.org/2000/svg" viewBox="0 0 503.55 39.07"><defs><style>.cls-1{fill:none;stroke:#000;stroke-miterlimit:10;stroke-width:0.5px;}</style></defs><g id="Layer_2" data-name="Layer 2"><g id="Layer_1-2" data-name="Layer 1"><path d="M21,17.08h.2v2.44l-.4,0h-.28a2,2,0,0,0-1.94.94,3.7,3.7,0,0,0-.27,1.62v4.37h-2.4V17.29h2.27v1.59a5,5,0,0,1,1-1.25,2.62,2.62,0,0,1,1.74-.56Z"/><path d="M30.24,25.3a4.25,4.25,0,0,1-3.51,1.42,4.24,4.24,0,0,1-3.5-1.42,5.29,5.29,0,0,1-1.16-3.43,5.35,5.35,0,0,1,1.16-3.43A4.22,4.22,0,0,1,26.73,17a4.23,4.23,0,0,1,3.51,1.44,5.35,5.35,0,0,1,1.16,3.43A5.29,5.29,0,0,1,30.24,25.3ZM28.33,24a3.42,3.42,0,0,0,.56-2.11,3.38,3.38,0,0,0-.56-2.11,1.87,1.87,0,0,0-1.6-.74,1.91,1.91,0,0,0-1.62.74,3.44,3.44,0,0,0-.56,2.11A3.48,3.48,0,0,0,25.11,24a1.91,1.91,0,0,0,1.62.74A1.87,1.87,0,0,0,28.33,24Z"/><path d="M38.73,17.29h2.56L38,26.42H35.48L32.2,17.29h2.68L36.78,24Z"/><path d="M45.09,16.2H42.67V14h2.42Zm-2.42,1.09h2.42v9.13H42.67Z"/><path d="M49.25,23.5a1.58,1.58,0,0,0,.33.91,2.27,2.27,0,0,0,1.65.47,2.51,2.51,0,0,0,1.12-.21.69.69,0,0,0,.08-1.23,13.37,13.37,0,0,0-2.49-.72,5.11,5.11,0,0,1-2.19-1,2.06,2.06,0,0,1-.64-1.64,2.85,2.85,0,0,1,1-2.17A4,4,0,0,1,50.9,17a5.19,5.19,0,0,1,2.79.68,2.94,2.94,0,0,1,1.24,2.36H52.54a1.38,1.38,0,0,0-.26-.73,1.64,1.64,0,0,0-1.34-.48,1.94,1.94,0,0,0-1.11.24.71.71,0,0,0-.34.57.62.62,0,0,0,.36.59,14.56,14.56,0,0,0,2.49.66,4.6,4.6,0,0,1,2.14,1,2.31,2.31,0,0,1,.7,1.71,2.8,2.8,0,0,1-1,2.22,4.8,4.8,0,0,1-3.13.85,4.75,4.75,0,0,1-3.18-.9,3,3,0,0,1-1-2.32Z"/><path d="M59.39,16.2H57V14h2.42ZM57,17.29h2.42v9.13H57Z"/><path d="M69.31,25.3a5,5,0,0,1-7,0,5.28,5.28,0,0,1-1.15-3.43,5.34,5.34,0,0,1,1.15-3.43,5,5,0,0,1,7,0,5.34,5.34,0,0,1,1.15,3.43A5.28,5.28,0,0,1,69.31,25.3ZM67.4,24A3.48,3.48,0,0,0,68,21.87a3.44,3.44,0,0,0-.56-2.11A1.88,1.88,0,0,0,65.79,19a1.9,1.9,0,0,0-1.61.74,3.44,3.44,0,0,0-.56,2.11A3.48,3.48,0,0,0,64.18,24a1.9,1.9,0,0,0,1.61.74A1.88,1.88,0,0,0,67.4,24Z"/><path d="M79.53,17.81a3,3,0,0,1,.9,2.46v6.15H78V20.87a2.55,2.55,0,0,0-.19-1.11,1.34,1.34,0,0,0-1.33-.7,1.64,1.64,0,0,0-1.65,1,3.43,3.43,0,0,0-.24,1.39v4.94H72.19V17.31H74.5v1.33a3.65,3.65,0,0,1,.87-1,3,3,0,0,1,1.85-.56A3.54,3.54,0,0,1,79.53,17.81Z"/><path d="M86.26,20.87a4.16,4.16,0,0,0,.95-.21.74.74,0,0,0,.52-.68.82.82,0,0,0-.4-.78A2.53,2.53,0,0,0,86.17,19a1.51,1.51,0,0,0-1.21.42,1.75,1.75,0,0,0-.34.84h-2.3a3.47,3.47,0,0,1,.67-2,3.93,3.93,0,0,1,3.26-1.21,5.78,5.78,0,0,1,2.68.6,2.28,2.28,0,0,1,1.16,2.24V24.1c0,.29,0,.64,0,1a1.51,1.51,0,0,0,.14.64.89.89,0,0,0,.35.27v.36H88a3.24,3.24,0,0,1-.15-.52c0-.17,0-.35-.07-.56a4.85,4.85,0,0,1-1.14.92,3.53,3.53,0,0,1-1.75.44A3,3,0,0,1,82.84,26,2.52,2.52,0,0,1,82,24a2.61,2.61,0,0,1,1.31-2.44A5.78,5.78,0,0,1,85.44,21ZM87.72,22a3.39,3.39,0,0,1-.47.23,3.46,3.46,0,0,1-.64.16l-.54.1a3.62,3.62,0,0,0-1.1.33,1.09,1.09,0,0,0-.56,1,1.11,1.11,0,0,0,.34.89,1.32,1.32,0,0,0,.84.27A2.5,2.5,0,0,0,87,24.52a2,2,0,0,0,.69-1.65Z"/><path d="M94.61,26.42H92.23V14.08h2.38Z"/><path d="M11.43,8.86c.18,0,.35,0,.36-.24s-.13-.24-.29-.24-.33,0-.37.22S11.27,8.86,11.43,8.86Z"/><path d="M11.52,10.56c.16,0,.33-.1.28-.28s-.36-.22-.64-.19C11.15,10.41,11.22,10.59,11.52,10.56Z"/><path d="M9.47,8.48c.31-.25.27-.51-.09-.67a1.46,1.46,0,0,0-1.26-.12,7.64,7.64,0,0,1-1,.24h0l-.21.21a.24.24,0,0,0,.17.24c.41.2.86.33,1.2.46A2.3,2.3,0,0,0,9.47,8.48Z"/><path d="M7.72,12a.26.26,0,0,0-.27.26c0,.17.11.27.26.26s.32-.12.3-.32S7.87,12,7.72,12Z"/><path d="M8.72,6.16a14.78,14.78,0,0,1,1.61-.32,2.15,2.15,0,0,0,2.06-1.28.4.4,0,0,1,.17-.21A4.46,4.46,0,0,0,14,3.15c.12-.14.26-.32.47-.16s.08.33,0,.49A10.44,10.44,0,0,1,12,6.22c-.09.06-.2.11-.16.25a.24.24,0,0,0,.31,0,5.12,5.12,0,0,0,1.43-.87,3,3,0,0,1,2-1,2.52,2.52,0,0,0,.65-.18,13.07,13.07,0,0,0,1.56-.74,1.3,1.3,0,0,1,.3-.13A5.45,5.45,0,0,0,16.15.27c-1.1-.7-2.5-.05-4.32,2.13C10.79,3.63,9.76,5,8.72,6.16Z"/><path d="M0,27.72q1.73-8.59,3.46-17.19l.5-.19H4a3,3,0,0,1,1,.44,1.25,1.25,0,0,1,.38.41,6,6,0,0,0,2,1.82,2.34,2.34,0,0,1,.58,3.14c-.12.14-.29.28-.19.49s.35.17.54.15a4.37,4.37,0,0,0,1.23-.37,1.47,1.47,0,0,0,.38-2.54.39.39,0,0,1-.16-.28A3.32,3.32,0,0,1,10,11.87a.52.52,0,0,1,.44-.31,3.13,3.13,0,0,0,1.28-.35A6.41,6.41,0,0,1,14,11.07c.2,0,.32.15.44.3a1,1,0,0,0,1.28.27.43.43,0,0,0,.26-.45c0-.2-.13-.39-.34-.38-.53,0-.69-.32-.75-.73s-.25-.44-.63-.39a3.58,3.58,0,0,1-2.14-.12c.23-.41.59-.33.88-.33a3.14,3.14,0,0,0,2.2-1A1.57,1.57,0,0,1,16,7.91c.73-.14,1.44-.37,2.16-.57a1,1,0,0,0,.3-.21,6.56,6.56,0,0,1-1.2,3.67c-1.1,1.58-3.05,3.15-5.72,5.26-1.21.93-4.23,2.67-5.44,3.53L4.71,27.14Z"/><path d="M11.06,5.94a.21.21,0,0,0-.22.25c0,.16.14.2.27.2s.27-.06.26-.22A.25.25,0,0,0,11.06,5.94Z"/><path d="M12.4,8.05a5,5,0,0,0,2.28-.69A1.52,1.52,0,0,1,16,7.05a.83.83,0,0,0,.38,0,8.46,8.46,0,0,0,1.87-.35.31.31,0,0,1,.23,0A11.6,11.6,0,0,0,18.35,5c0-.28-.09-.55-.14-.81a.23.23,0,0,0-.07.07A7,7,0,0,1,15.9,5.76,9.83,9.83,0,0,0,13.46,7.1a1.29,1.29,0,0,1-1.11.42.3.3,0,0,0-.36.34C12,8.07,12.24,8.07,12.4,8.05Z"/><path d="M11.53,7.28c.17,0,.3-.06.29-.25s-.11-.22-.26-.22A.23.23,0,0,0,11.3,7,.22.22,0,0,0,11.53,7.28Z"/><path d="M16.6,37.25l1.31-6.15h.89l.86,5.42h0l3.14-5.42h.88l-1.31,6.15h-.58L23,31.76h0l-3.18,5.49h-.54l-.87-5.49h0l-1.16,5.49Z"/><path d="M23.75,37.25l.94-4.43h.51l-.94,4.43Zm1.12-5.39L25,31.1h.57l-.17.76Z"/><path d="M26.08,37.25h-.51l.94-4.43H27l-.12.62a4.67,4.67,0,0,1,.74-.53,1.69,1.69,0,0,1,.84-.21,1.9,1.9,0,0,1,.73.14,1,1,0,0,1,.48.5,1,1,0,0,1,.09.49,3.28,3.28,0,0,1-.08.52l-.62,2.9h-.51l.62-2.89a1.17,1.17,0,0,0-.08-.9c-.13-.2-.4-.29-.81-.29a1.43,1.43,0,0,0-.46.07,1.76,1.76,0,0,0-.39.19,1.49,1.49,0,0,0-.33.27,1.46,1.46,0,0,0-.24.33,2.05,2.05,0,0,0-.18.41,3.83,3.83,0,0,0-.11.43Z"/><path d="M35.05,31.1h.51l-1.3,6.15h-.52l.16-.78h0a2,2,0,0,1-.37.39,2.32,2.32,0,0,1-.44.28,3,3,0,0,1-.47.17,1.86,1.86,0,0,1-.45.06,1.89,1.89,0,0,1-.88-.18,1.15,1.15,0,0,1-.51-.49,1.69,1.69,0,0,1-.2-.74,3.69,3.69,0,0,1,.09-.91,4.44,4.44,0,0,1,.3-.89,2.71,2.71,0,0,1,.52-.75,2.34,2.34,0,0,1,.73-.51,2.11,2.11,0,0,1,.92-.2,1.79,1.79,0,0,1,.86.21,1.17,1.17,0,0,1,.54.62ZM34.21,35a2.5,2.5,0,0,0,0-.71,1.51,1.51,0,0,0-.17-.59,1.07,1.07,0,0,0-.38-.41,1.2,1.2,0,0,0-.59-.14,1.73,1.73,0,0,0-.73.15,1.86,1.86,0,0,0-.57.44,2.28,2.28,0,0,0-.41.63,2.82,2.82,0,0,0-.23.78,2.13,2.13,0,0,0,0,.74,1.29,1.29,0,0,0,.2.55,1,1,0,0,0,.41.33,1.29,1.29,0,0,0,.57.12,1.5,1.5,0,0,0,.67-.15,1.82,1.82,0,0,0,.56-.39,2.36,2.36,0,0,0,.41-.6A3,3,0,0,0,34.21,35Z"/><path d="M35.6,37.25l1.3-6.15h.89l.87,5.42h0l3.14-5.42h.88l-1.31,6.15H40.8L42,31.76h0l-3.18,5.49h-.55l-.86-5.49h0l-1.16,5.49Z"/><path d="M45.25,34.67l.35-.05a1.55,1.55,0,0,0,.36-.1.36.36,0,0,0,.2-.2,1.53,1.53,0,0,0,.08-.26,1.12,1.12,0,0,0,0-.36.53.53,0,0,0-.14-.28.77.77,0,0,0-.29-.19,1.75,1.75,0,0,0-.5-.06,1.92,1.92,0,0,0-.92.21,1.27,1.27,0,0,0-.58.79h-.52a2,2,0,0,1,.32-.68,1.91,1.91,0,0,1,.49-.45,2.14,2.14,0,0,1,.62-.26,3.19,3.19,0,0,1,.7-.08,2.37,2.37,0,0,1,.61.08,1,1,0,0,1,.46.23.75.75,0,0,1,.25.42,1.43,1.43,0,0,1,0,.65l-.51,2.41c-.05.2,0,.33,0,.38s.21,0,.44,0l-.08.4-.19.06-.23,0a.78.78,0,0,1-.22,0,.29.29,0,0,1-.29-.23,1.2,1.2,0,0,1,0-.42,2.82,2.82,0,0,1-.86.54,2.36,2.36,0,0,1-.94.19,1.63,1.63,0,0,1-.55-.08,1.1,1.1,0,0,1-.42-.24.92.92,0,0,1-.24-.39,1.32,1.32,0,0,1,0-.56c.16-.76.77-1.2,1.83-1.34Zm.81.26a3.14,3.14,0,0,1-.7.18c-.22,0-.45,0-.68.06a2.18,2.18,0,0,0-1,.27,1,1,0,0,0-.48.67.71.71,0,0,0,0,.36.53.53,0,0,0,.17.25.77.77,0,0,0,.27.14,1.34,1.34,0,0,0,.35,0,2.55,2.55,0,0,0,.61-.08,2.13,2.13,0,0,0,.56-.23,1.9,1.9,0,0,0,.45-.4,1.61,1.61,0,0,0,.26-.58Z"/><path d="M47.62,39h-.51l1.31-6.17h.51l-.16.78h0a1.85,1.85,0,0,1,.36-.38,2.45,2.45,0,0,1,.45-.29,2.85,2.85,0,0,1,.46-.17,2,2,0,0,1,1.33.12,1.3,1.3,0,0,1,.52.49,1.88,1.88,0,0,1,.19.74A3.74,3.74,0,0,1,52,35a4.09,4.09,0,0,1-.31.89,3,3,0,0,1-.52.75,2.61,2.61,0,0,1-.72.51,2.17,2.17,0,0,1-.92.19,1.77,1.77,0,0,1-.86-.21,1.1,1.1,0,0,1-.54-.62Zm.84-3.94a2.57,2.57,0,0,0-.05.72,1.41,1.41,0,0,0,.18.59,1,1,0,0,0,.38.4,1.1,1.1,0,0,0,.59.15,1.6,1.6,0,0,0,.73-.16,1.72,1.72,0,0,0,.57-.43,2.42,2.42,0,0,0,.41-.64,3.73,3.73,0,0,0,.23-.78,1.61,1.61,0,0,0-.16-1.29,1.13,1.13,0,0,0-1-.44,1.52,1.52,0,0,0-.67.14,2,2,0,0,0-.56.4,2.36,2.36,0,0,0-.41.6A3.09,3.09,0,0,0,48.46,35.05Z"/><path d="M164,23.88a.61.61,0,0,1,0,.14.67.67,0,0,1-.11.27l0,0c-.3-.2-.1-.43,0-.69l.08,0A.82.82,0,0,1,164,23.88Z"/><path d="M164,23.88a.61.61,0,0,1,0,.14.67.67,0,0,1-.11.27l0,0c-.3-.2-.1-.43,0-.69l.08,0A.82.82,0,0,1,164,23.88Z"/><path d="M187.27,26a6,6,0,0,1-8.33,0,6.25,6.25,0,0,1-1.37-4.08,6.27,6.27,0,0,1,1.37-4.06,5.9,5.9,0,0,1,8.33,0,6.28,6.28,0,0,1,1.38,4.06A6.26,6.26,0,0,1,187.27,26ZM185,24.43a4.12,4.12,0,0,0,.66-2.51,4.12,4.12,0,0,0-.66-2.51,2.52,2.52,0,0,0-3.83,0,4.05,4.05,0,0,0-.67,2.51,4.05,4.05,0,0,0,.67,2.51,2.51,2.51,0,0,0,3.83,0Z"/><path d="M196.7,16.23l.24,0v2.9l-.48,0h-.33a2.36,2.36,0,0,0-2.3,1.11,4.35,4.35,0,0,0-.33,1.93v5.19h-2.85V16.48h2.7v1.89a6,6,0,0,1,1.15-1.48,3.12,3.12,0,0,1,2.06-.66Z"/><path d="M201.52,15.19h-2.88V12.58h2.88Zm-2.88,1.29h2.88V27.33h-2.88Z"/><path d="M213.3,26A6,6,0,0,1,205,26a6.25,6.25,0,0,1-1.37-4.08A6.27,6.27,0,0,1,205,17.86a5.9,5.9,0,0,1,8.33,0,6.28,6.28,0,0,1,1.38,4.06A6.26,6.26,0,0,1,213.3,26ZM211,24.43a4.05,4.05,0,0,0,.67-2.51,4.05,4.05,0,0,0-.67-2.51,2.26,2.26,0,0,0-1.9-.88,2.29,2.29,0,0,0-1.92.88,4.05,4.05,0,0,0-.67,2.51,4.05,4.05,0,0,0,.67,2.51,2.28,2.28,0,0,0,1.92.89A2.24,2.24,0,0,0,211,24.43Z"/><path d="M215.59,18.6v-2h1.51v-3h2.81v3h1.76v2h-1.76v5.73c0,.45.05.72.17.83a1.8,1.8,0,0,0,1,.17h.56v2.12l-1.34,0a3.6,3.6,0,0,1-2.75-.69,2.08,2.08,0,0,1-.48-1.5V18.6Z"/><path d="M228.59,27.52a3.55,3.55,0,0,1-1.27-.25,2.75,2.75,0,0,1-1-.69,3.38,3.38,0,0,1-.7-1.15,4.7,4.7,0,0,1-.26-1.62,4.77,4.77,0,0,1,.21-1.44,3.39,3.39,0,0,1,.61-1.18,2.86,2.86,0,0,1,1-.79,3.16,3.16,0,0,1,1.42-.29,3.25,3.25,0,0,1,1.44.29,3,3,0,0,1,1,.79,3.25,3.25,0,0,1,.6,1.17,5.24,5.24,0,0,1,.2,1.45,4.8,4.8,0,0,1-.23,1.52A3.71,3.71,0,0,1,231,26.5a3.07,3.07,0,0,1-1,.75A3.27,3.27,0,0,1,228.59,27.52ZM231,23.81a4.93,4.93,0,0,0-.14-1.17,2.78,2.78,0,0,0-.42-.94,1.94,1.94,0,0,0-.73-.63,2.45,2.45,0,0,0-1.1-.23,2.17,2.17,0,0,0-1.09.25,2.08,2.08,0,0,0-.74.67,2.83,2.83,0,0,0-.42.95,4.42,4.42,0,0,0-.14,1.1,4.1,4.1,0,0,0,.16,1.2,2.65,2.65,0,0,0,.45.94,2,2,0,0,0,.75.62,2.4,2.4,0,0,0,1,.21,2.1,2.1,0,0,0,1.83-.92,3,3,0,0,0,.42-.95A4.42,4.42,0,0,0,231,23.81Z"/><path d="M234.15,27.33h-.81v-7h.81v1a5.49,5.49,0,0,1,1-.84,2.41,2.41,0,0,1,1.26-.32,3.21,3.21,0,0,1,1.21.22,2,2,0,0,1,.93.78,1.73,1.73,0,0,1,.31.78,7.58,7.58,0,0,1,0,.84v4.6h-.82V22.74a2.12,2.12,0,0,0-.42-1.43,1.82,1.82,0,0,0-1.4-.47,2.17,2.17,0,0,0-.69.11,2,2,0,0,0-.56.31,2.19,2.19,0,0,0-.43.43,2,2,0,0,0-.27.52,2.75,2.75,0,0,0-.15.65c0,.21,0,.44,0,.68Z"/><path d="M241.79,30.09H241V20.3h.81v1.23h0a2.67,2.67,0,0,1,.45-.61,2.91,2.91,0,0,1,.61-.45,4.48,4.48,0,0,1,.69-.27,2.72,2.72,0,0,1,.69-.09,3.35,3.35,0,0,1,1.45.28,2.73,2.73,0,0,1,1,.78,3.31,3.31,0,0,1,.56,1.18,5.59,5.59,0,0,1,.18,1.45,5.45,5.45,0,0,1-.19,1.41,3.57,3.57,0,0,1-.58,1.19,2.77,2.77,0,0,1-1,.81,3,3,0,0,1-1.39.31,3.27,3.27,0,0,1-1.43-.34,2.5,2.5,0,0,1-1.08-1Zm0-6.25A4.17,4.17,0,0,0,242,25a3.07,3.07,0,0,0,.47.94,2.43,2.43,0,0,0,.75.64,2.17,2.17,0,0,0,1,.23,2.25,2.25,0,0,0,1.09-.25,2.08,2.08,0,0,0,.76-.68,3,3,0,0,0,.44-1,4.59,4.59,0,0,0,.11-1.25,3.26,3.26,0,0,0-.19-1.17,2.5,2.5,0,0,0-.5-.86,2.25,2.25,0,0,0-.76-.54,2.47,2.47,0,0,0-1-.18,2.25,2.25,0,0,0-1,.23,2.08,2.08,0,0,0-.75.63,2.79,2.79,0,0,0-.45.95A4.13,4.13,0,0,0,241.79,23.84Z"/><path d="M250,27.33h-.82v-7H250v1.31h0a2.35,2.35,0,0,1,.88-1.17,2.69,2.69,0,0,1,1.42-.33V21a2.3,2.3,0,0,0-1.14.22,1.79,1.79,0,0,0-.71.62,2.42,2.42,0,0,0-.37.93,5.83,5.83,0,0,0-.1,1.12Z"/><path d="M253.77,18.76v-1.2h.9v1.2Zm0,8.57v-7h.82v7Z"/><path d="M257.52,27.33h-.82v-7h.82v1a5.18,5.18,0,0,1,1-.84,2.37,2.37,0,0,1,1.25-.32,3.18,3.18,0,0,1,1.21.22,2.12,2.12,0,0,1,.94.78,1.71,1.71,0,0,1,.3.78,7.58,7.58,0,0,1,0,.84v4.6h-.81V22.74a2.12,2.12,0,0,0-.43-1.43,1.79,1.79,0,0,0-1.39-.47A2.08,2.08,0,0,0,259,21a2.24,2.24,0,0,0-.57.31,2.13,2.13,0,0,0-.42.43,2.39,2.39,0,0,0-.28.52,2.75,2.75,0,0,0-.15.65c0,.21,0,.44,0,.68Z"/><path d="M269.23,22.51a2.39,2.39,0,0,0-.75-1.23,2,2,0,0,0-1.34-.44,2.16,2.16,0,0,0-1.08.26,2.26,2.26,0,0,0-.73.68,3.14,3.14,0,0,0-.42,1,4.29,4.29,0,0,0-.13,1.07,4.86,4.86,0,0,0,.12,1.09,3,3,0,0,0,.42.95,2.13,2.13,0,0,0,.73.67,2.17,2.17,0,0,0,1.09.25,2.07,2.07,0,0,0,1.46-.5,2.36,2.36,0,0,0,.69-1.38h.87a3.87,3.87,0,0,1-.34,1.06,3,3,0,0,1-.61.83,2.76,2.76,0,0,1-.89.54,3.6,3.6,0,0,1-1.18.19,3.38,3.38,0,0,1-1.45-.29,2.72,2.72,0,0,1-1-.78,3.21,3.21,0,0,1-.58-1.17,5.31,5.31,0,0,1-.19-1.46,4.7,4.7,0,0,1,.21-1.4,3.55,3.55,0,0,1,.62-1.19,3,3,0,0,1,1-.82,3.06,3.06,0,0,1,1.39-.3,3.12,3.12,0,0,1,2,.58,2.7,2.7,0,0,1,.94,1.82Z"/><path d="M271.87,18.76v-1.2h.9v1.2Zm0,8.57v-7h.82v7Z"/><path d="M275.71,30.09h-.81V20.3h.81v1.23h0a2.67,2.67,0,0,1,.45-.61,2.73,2.73,0,0,1,.62-.45,4,4,0,0,1,.68-.27,2.84,2.84,0,0,1,.69-.09,3.32,3.32,0,0,1,1.45.28,2.73,2.73,0,0,1,1,.78,3.15,3.15,0,0,1,.56,1.18,5.59,5.59,0,0,1,.18,1.45,5.45,5.45,0,0,1-.19,1.41,3.57,3.57,0,0,1-.58,1.19,2.77,2.77,0,0,1-1,.81,3,3,0,0,1-1.39.31,3.3,3.3,0,0,1-1.43-.34,2.56,2.56,0,0,1-1.08-1Zm0-6.25a3.81,3.81,0,0,0,.17,1.13,2.84,2.84,0,0,0,.46.94,2.56,2.56,0,0,0,.75.64,2.17,2.17,0,0,0,1,.23,2.25,2.25,0,0,0,1.09-.25,2.19,2.19,0,0,0,.77-.68,3,3,0,0,0,.43-1,4.59,4.59,0,0,0,.11-1.25,3.51,3.51,0,0,0-.18-1.17,2.69,2.69,0,0,0-.51-.86A2.25,2.25,0,0,0,279,21a2.47,2.47,0,0,0-1-.18,2.25,2.25,0,0,0-1,.23,2.08,2.08,0,0,0-.75.63,2.79,2.79,0,0,0-.45.95A4.13,4.13,0,0,0,275.71,23.84Z"/><path d="M283.22,27.33V17.56H284v9.77Z"/><path d="M286.61,24a3.81,3.81,0,0,0,.15,1.08,2.51,2.51,0,0,0,.44.88,2.09,2.09,0,0,0,.74.6,2.48,2.48,0,0,0,2.4-.2,2,2,0,0,0,.76-1.19H292a4.28,4.28,0,0,1-.4.93,2.71,2.71,0,0,1-.61.74,2.53,2.53,0,0,1-.86.5,3.51,3.51,0,0,1-1.17.18,3.38,3.38,0,0,1-1.45-.29,2.72,2.72,0,0,1-1-.78,3.38,3.38,0,0,1-.58-1.17,5.12,5.12,0,0,1-.19-1.44,4.54,4.54,0,0,1,.22-1.45,3.58,3.58,0,0,1,.64-1.19,2.92,2.92,0,0,1,1-.8,3,3,0,0,1,1.36-.29,2.81,2.81,0,0,1,2.28,1,4.4,4.4,0,0,1,.81,2.9Zm4.58-.68a3.12,3.12,0,0,0-.14-1,2.1,2.1,0,0,0-.42-.78,1.94,1.94,0,0,0-.7-.53A2.4,2.4,0,0,0,288,21a2.22,2.22,0,0,0-.7.55,2.54,2.54,0,0,0-.47.78,3.39,3.39,0,0,0-.23.95Z"/><path d="M160.28,22.23c-.06.14-.15.24-.31.18a.28.28,0,0,1-.12-.39.24.24,0,0,1,.33-.13C160.33,22,160.33,22.1,160.28,22.23Z"/><path d="M161,23c-.05.17-.16.28-.34.2a.23.23,0,0,1-.13-.33.25.25,0,0,1,.32-.18A.23.23,0,0,1,161,23Z"/><path d="M162.59,23.41c-.05.18-.14.33-.36.27s-.19-.21-.14-.38.15-.3.35-.27A.26.26,0,0,1,162.59,23.41Z"/><path d="M163.69,20.3a2.36,2.36,0,0,1-.79,1.05c-.35.22-.59.09-.62-.32a1.51,1.51,0,0,1,.33-1.28c.23-.25.36-.59.57-.86s.45-.22.48.08C163.71,19.44,163.68,19.92,163.69,20.3Z"/><path d="M164.22,24.1c-.07.14-.19.26-.33.19l0,0c-.3-.2-.1-.43,0-.69l.08,0C164.23,23.7,164.34,23.83,164.22,24.1Z"/><path d="M167.46,21a.3.3,0,0,1-.42.19.25.25,0,0,1-.09-.35.27.27,0,0,1,.35-.18C167.46,20.77,167.53,20.89,167.46,21Z"/><path d="M176.24,28.66l-.83-.26a10.48,10.48,0,0,0-3.31-.47h-.44l-.14-.42c-.15-.45-.3-.91-.45-1.35A17.51,17.51,0,0,1,164,30a13.22,13.22,0,0,1-3.87.64,6.81,6.81,0,0,1-4.45-1.43A6.69,6.69,0,0,1,153.45,23c.26-2.48,1.37-4.26,3.33-6.67a101.4,101.4,0,0,1,7.6-8.31c2-1.91,3.62-3,5.06-3.35a3.81,3.81,0,0,1,4.15,1.36,9.26,9.26,0,0,1,1.7,5.33l0,.59-.59,0a13.35,13.35,0,0,0-5.69,2l-.87.5,0-1a1.47,1.47,0,0,0-.12-.65l.53-1.25a1.13,1.13,0,0,0-2.06-.91l-2.05,4.46a6.09,6.09,0,0,1-1.48,2,5,5,0,0,0-1.45,1.64,6.38,6.38,0,0,1-.83,1.34,9.29,9.29,0,0,0-.66,1.09c-.42.83-.92,1.55-2,1.57a.49.49,0,0,0-.27.1,4.66,4.66,0,0,1-1.67.93c-.17.07-.39.15-.31.41s.29.2.49.15a10.55,10.55,0,0,0,3.51-1.38c.1-.06.18-.16.31-.07a.27.27,0,0,1-.09.32,5.48,5.48,0,0,1-1.35,1.09A3.11,3.11,0,0,0,157,26a2.74,2.74,0,0,1-.39.57,17.18,17.18,0,0,1-1.28,1.28c-.15.14-.39.29-.22.53s.4.14.63,0A7.4,7.4,0,0,0,158,26.7a10.2,10.2,0,0,1,2.17-1.92c.34-.22.72-.44.79-.94a.31.31,0,0,1,.46-.23c.2.11.12.32,0,.47a5.15,5.15,0,0,1-1.47,2,1.59,1.59,0,0,0-.77,1.18,1,1,0,0,1-.18.37,9.36,9.36,0,0,1-1,1.7.24.24,0,0,0,0,.37.32.32,0,0,0,.38,0,.88.88,0,0,0,.33-.24c.45-.63.92-1.24,1.32-1.91a1.57,1.57,0,0,1,.66-.69,3.32,3.32,0,0,0,1.71-1.82c.1-.28.15-.66.63-.75a3.76,3.76,0,0,1-.63,2.14c-.19.35-.21.55.16.76s.65.48.45,1a.38.38,0,0,0,.25.47.45.45,0,0,0,.54-.1,1,1,0,0,0,.18-1.35c-.11-.17-.22-.34-.14-.54a6.28,6.28,0,0,1,.94-2.17,3.37,3.37,0,0,0,.76-1.07.68.68,0,0,1,.48-.39,3.39,3.39,0,0,1,1.81.24.4.4,0,0,1,.22.22,1.54,1.54,0,0,0,2.64.56A4.41,4.41,0,0,0,171.5,23c.1-.18.25-.39.05-.58s-.37-.05-.55,0a2.43,2.43,0,0,1-2.88-1.67A6.15,6.15,0,0,0,167,18.2a1.2,1.2,0,0,1-.27-.51,9.47,9.47,0,0,1-.11-1.5,4.23,4.23,0,0,1,.18-.47c2.61-1.55,5.28-2.81,8-2.85h.58Z"/><path d="M342.63,32.54c.42-.29-2.1-.25-3.22-.62a8.9,8.9,0,0,1-2.61-1.76A8.25,8.25,0,0,1,335,27.24a11.62,11.62,0,0,1-.66-4.09,12.76,12.76,0,0,1,.52-3.67,8.5,8.5,0,0,1,1.55-3,7.47,7.47,0,0,1,2.58-2,8.31,8.31,0,0,1,3.61-.74,9.67,9.67,0,0,1,3.65.74c1.23.61,4.75,2.73,2.58,2,3.36,2.18,8.21,5.08,1.53,3,7.11,3.59,10.45,5.38.5,3.68,9.95,3,10.34,3.71-.59,3.85,10.57.91,7.82,1.53-1.67,3,8.65-.47,3.57.62-2.61,1.91C350.62,31.28,345.31,32.27,342.63,32.54Zm6.05-9.39c8.21,1.08,5.57-.32-.34-3,5.58,1.29,2-.64-1.07-2.39,2.24.56-.62-1-1.85-1.6a8.1,8.1,0,0,0-2.79-.59,5.59,5.59,0,0,0-2.77.64A5.41,5.41,0,0,0,338,17.93a7.33,7.33,0,0,0-1.07,2.41,11.38,11.38,0,0,0-.34,2.81,11.24,11.24,0,0,0,.39,3,7.38,7.38,0,0,0,1.15,2.39c.53.67,1.56,1.15,1.89,1.55,1.16.33,3.72.33,2.62.55,3-.22,7.54-.82,2.77-.64,6-.84,9.53-1.46,1.87-1.7,8.29-.69,9.9-1.16,1.07-2.41C357.44,26.13,356.89,25.47,348.68,23.15Z"/><path d="M356.73,32.05c10.73-3.31,9-3-2.06,0,11.06-3,11.06-4.36,0-8.9,11.06,1.89,3.84-5.63,0-8.91,3.84,3.28,6.5,4.35,2.06,0,4.44,4.35,6.86,8,0,2.47,7.27,5.06,7,3.95,2.57-2.13,5.41,5.47,6.25,5.63,3.18-.83,4.31,6.46,5.51,8,3.06.57,3.26,7.76,4.19,10.07,2.37,2,2.11,8.51,2.45,9.76.78,2,1.7,8,1.92,8.71.12,2.11,1.8,6.67,2.14,7.34,0,5.83,2.14,1.72,2,1.89,0,5.83,2-3.94,1.84-3.91-2.07,0,3.91-3.91,4.06-4.11,0-5.81,4.06,1.46,3.59.76,0-5.81,3.59,6.39,2.77,4.65-1.06-3.61,3.46,7.85,2.14,6-3.55-1.21,4.77,7.24,4.27,7-1.75.29,5.57,6.84,5.43,7-1.43.78,6.51,6.52,6.71,7-1.08,1.1,7.56,6.21,8.05,6.79-.69,1.31,8.61,5.84,9.35,6.47-.38,1.65,9.7,5.12,10.42,5.61-.07,1.72,10.49,4,11.39,4.82,0,4.8C368.12,28.12,367.46,28.74,356.73,32.05Z"/><path d="M376.1,39.07c-3.69-7.74-4.44-8-2.06,0-2.38-8-2.85-10.62,0-6.44-2.85-4.69-2.85-5.18,0-12-2.85,6-2,1.35,0-6.43-2,7.78-.94,7.42,2.06,0-3,7.42-4.07,11,0,3.13q-6.11,11.77.07,0c-4,7.71-3.3,6.29,1.15-1.55-4.12,7.52-3.06,5.9,1.55-1.14C374.78,21.44,376,20,380.61,14c-3.93,5.78-2.77,4.71,1.75-.25-3.23,5-1.26,4,3.68.73-1.74,2-2.55,3.15-2.2,3.48s2.37-.08,4.7-1.51c-1.88,2-3.92,3.29-3.91,3.85s3.46.45,5.33-.87c-1.7,2-5.89,3.22-6.1,3.86s4.25.48,6.55-.18c-2.3,1.25-7.7,2.33-8,2.88s2,.73,7.49.7c-11.19,1-12.6,1.4-1.46,3-11.6-1-13.1-1-2.48,2.06-11.18-2.76-12.75-3.12-3.53.78-9.7-3.9-10.61-4.27-3.62-.85-7.22-3.53-7.49-3.69-2.74-2.49-4.78-1.26-4.61-.94,0,4.94C371.49,28.8,372.41,31.33,376.1,39.07Zm0-15.86c-4.76,4.37-4.78,4.51.41,2.88-5.16,1.73-5.1,1.76,1.19,2.37-6.22-.52-6-.46,1.89,1.62-7.76-2-7.21-1.87,2.53.6-9.45-2.47-8.45-2.36,2.77-.64-10.89-1.9-9.86-2,1.94-1.73-11.53-.64-10.5-.95,1.1-2.57-11.45,1-10.15.33.28-3.14-10.44,2.58-9,1.51-.46-3-8.8,3.65-8.12,2.75-1.3-2.19-7.42,4.3-7.72,4-1.92-1.35-6.6,5-7.76,5.62-2.41-.47-6.25,6.09-7.8,7.6-2.58.59-5.78,7.3-7,8.94-1.89,1.6-5.33,7.66-6,8.83-1.15,2.41C371.57,26.88,371.34,27.43,376.1,23.21Z"/><path d="M397,32.05c1.95-1.77-1.92-1.06-4.1-.56.65-.61,1.67-.81,2,.56-.37-1.37-2.59-2.06-4-3.17,1.39-1.82,7.55-4.27,4-5.73,3.55-1.1.43-3.07-2.11-5.34,3.65-1,4.85-2.41,2.11-3.57,2.64,1.21,6.07,1.71,2.06,0,4,1.71,5.44,5,0,3.33,5.44,1.62,5.56,1.63.07,0,5.91.64,7-.16,2.22-3,6,2,8.45,2.74,3.59-.85,5.73,3.59,6.95,5.47,0,2.24,6.36,3.22,4.29,2.7-2.89.55,6.28,2.61,5,2.81-1.8,1.58,6.22,2.07,5.08,2.79-.93,2.36,5.8,1.52,4.68,2.29-.26,2.84,5.93-.15,2.31.48-2.63,1.66,4.77.06,6.94.52,2.63,2.71,4.31-.88.06,1-2.57,2.67C397.27,30.06,398.93,30.28,397,32.05Z"/><path d="M406.47,10.35c3.62,4.19,1.76-.49,0-3.06,1.76,2.57,4,3.18,2.28,0,1.73,3.18,3.29,7.89,0,3.06C412,15.18,410.09,14.54,406.47,10.35Zm.11,21.7c5-4.67,7.38-8.2,0-8.9,7.38-1.71,5.67-4.38,0-8.91,5.67,4.53,7,5,2.06,0,5,5,6.26,7.39,0,8.91,6.26.45,4.49,3.73,0,8.9C413.13,26.88,411.62,27.38,406.58,32.05Z"/><path d="M416,32.05c.71-6.12-.11-6-2.07,0,2-6,2.35-8.83,0-8.9,2.35-1.24,2.09-3.25,0-8.91,2.09,5.66,2.78,5.77,2.07,0,.71,5.77.69,7,0,2.47.86,4.35,1.24,3.69,2.56-2.13-.82,5.51-.21,5,3.18-.83-2.6,5.79-2,5.71,3.06.57-4.45,5.41-4.37,5.83,2.38,2-6.4,4.36-6.7,4.75.77,2-7.42,3.17-7.78,3.46.12,2.11-7.9,1.54-7.6,2.32,0,5.83-7.6-1.84-5.24,1,0,5.83-5.24-4.87-6.74-5.33-2.06,0-4.68-5.33-6.64-8,0-5.81-6.64-3.56-6.9-4.21,0-5.81-6.9,1.25-6.51.75-1.07-3.61-5.82,3.93-6.28,3.88-3.54-1.21-3.33,5.09-3.62,5.25-1.76.29-2.12,5.06-2.35,5.28-1.42.78-1.11,4.64-1.27,4.86-1.09,1.1-.29,3.91-.38,4.07-.68,1.31.24,2.93.18,3.06-.38,1.65.55,1.56.53,1.64-.07,1.72.6,0,.67.45,0,4.8C416.64,23.81,416.68,25.93,416,32.05Z"/><path d="M445.65,19.84c8.14-.58,5.64-1.13-1.89-3.11,6.65,1.25.75,1-3.4-1.12,4.33,1.66-1.77,1.53-5,1.36,1.86.54,4.29.63,2.27-.7,1.58,1.58-4.65,2-6,2.24.17.4,4,.44,4.1-.51-.33,1.31-6,1.93-6.6,2.32-.15.4,4.11.41,5.54.13-1.53.67-6.59,1.22-6.73,1.62s4.19.55,6.38,1.11c-2.19-.16-6.37.18-6.25.59s4.23.82,6.58,2.16c-2.24-.91-5.44-.72-5.18-.28.51.39,4.23,1,6.23,2.69-1.73-1.32-3.73-1.18-3.57-.7,1,.25,4.35.7,5.43,2.4-.56-1.41-1.3-1.36-1.7-.72,1.83-.21,5-.34,4.45,1.36.86-2.2,6.69-3.6,3.7-1.27,4.24-3.47,8.24-5.77,1.77-3.51,6.6-3,9.32-3.47,2.2,0,7-3,4.87-1.51-.88,2.7,5.3-3.3,2.58-1.38-1.55,2.1,3.24-2.66.25-1-2.25,1.35,1.08-1.81-2.45-1.2-3,.49-.15-1.27-2.72-1.4-4.3-1.38-.26-.59-.4-.54.62.65-1.79-1.55-4.51-2.43-5.43-2.87-.63-.53.42-.52,2.88.9-2.85-1.9-5.83-3-6.35-3.52s1.58-.55,4.87.54c-3.43-1.59-6.55-2.38-6.75-2.92s2.8-.81,6.27-.76c-3.47-.52-6.58-.81-6.42-1.32s3.83-1.16,6.95-2.24c-3,.62-5.79.63-5.29.12s4.86-1.4,6.86-3.13c-1.5,1.28-3.83,1.26-3.49.74,1.2-.4,6.42-1,6.05-2.82,1,1.51.11,1.44-1.27.71,3.1.21,8.46.44,4.8-1.49,4.48,2.34,12,3.31,5,1.48,8.26,2.78,11,3.72,2.39,4.61C456.44,19.66,453.94,19.79,445.65,19.84Z"/><path d="M452.36,10.35c5.24,4.89,3.6,1.48,0-3.06,3.6,4.54,5.39,5.05,2.27,0,3.12,5.05,4.43,8.32,0,3.06C459.06,15.61,457.6,15.24,452.36,10.35Zm.11,21.7c3.28-4.7,7-10.59,0-8.9,7-3.92,6.69-5.42,0-8.91,6.69,3.49,7.72,3.63,2.06,0,5.66,3.63,5.86,5,0,8.91,5.86-2.07,2.78,3.71,0,8.9C457.31,26.86,455.75,27.35,452.47,32.05Z"/><path d="M462.1,39.07C462,38,460,38,460,39.07c0-1.08.55-10,0-6.44.55-7.71,2.06-12.87,0-12,2.06-1.93,1.93-2.67,0-6.43,1.93,3.76,2.4,3.74,2.07,0,.33,3.74.4,4.43,0,3.13.4,1.3.41,1.3.07,0,.39,1.22.46,1.07,1.15-1.55-.54,2.46-.4,2.28,1.55-1.14-1.72,3.3-1.5,3.1,1.73-.68-3,3.71-2.66,3.54,1.76-.25-3.88,3.79-3.08,3.59,3.68.73-6.11,3.16-5.49,3.3,2.49,2-7.52,1.92-7,2.3,1.43,3-8.24.2-7.53.88.45,3.68-8-1.69-7-.56-.48,3.58-6.82-3-6.08-1.58-1.47,3-5.39-3.56-5.49-2.6-2.47,2.06-4.31-4-5.34-4.15-3.53.78-3.42-4.93-4.62-6.4-3.63-.85-2.18-6.13-2.7-8.33-2.73-2.49-.21-6.23-.32-1.54,0,4.94C461.78,30.91,462,38,462.1,39.07Zm0-15.86c.2-3.27,0-2.56.41,2.88-.24-5-.19-3.91,1.19,2.37-1-5.84-.62-4.6,1.89,1.62-1.87-5.88-1.14-5,2.53.6-2.68-5.59-2-5.48,2.77-.64-3.94-5.28-3.89-6,1.94-1.73-5.35-5-5.85-5.94,1.1-2.57-6.76-4.18-7.44-5,.28-3.14-7.74-2.66-8.18-3.14-.47-3-7.9-.69-8.27-.93-1.29-2.19-7.29.92-7.68.84-1.92-1.35-6.13,2-6.55,2.09-2.41-.47-4.54,2.56-4.86,2.71-2.58.59-2.55,2.26-2.71,2.42-1.89,1.6-1,1-1.09,1.2-1.16,2.41C462.48,19.25,462.3,19.6,462.1,23.21Z"/><path d="M481.12,32.05c-1.66-1.08-5.77-5.81,0-6.42-5.77-4.49-6-7.75,0-11.92-6-.8-2.1-5.11,0-6.42-2.1,1.31.62.8,2.06,0-1.44.8-4.81,4.83,0,6.42-4.81,4-4.54,7.66,0,11.92-4.54,1.48-.89,5.89,0,6.42C482.29,31.52,479.46,31,481.12,32.05Z"/><path d="M489.72,23.63c-1,.74-.23,1.79.38,2.73-.11.75.62,1.61,1.11,2.24a5.48,5.48,0,0,0,1.88,1.51,6.22,6.22,0,0,0,6.09-.5,5.13,5.13,0,0,0,1.92-3h2.31a11.09,11.09,0,0,1-1,2.36,7.09,7.09,0,0,1-1.55,1.89,6.6,6.6,0,0,1-2.2,1.26,8.86,8.86,0,0,1-3,.45,8.54,8.54,0,0,1-3.68-.73,6.93,6.93,0,0,1-2.54-2c-.7-.85-2.17-2.18-1.48-3-1.31-1.4-2.86-2.89-.48-3.67-2.38-1.58-2.28-2.72.56-3.68-2.16-1.1-.42-2.09,1.62-3-.71-.71,1.36-1.51,2.56-2a7.58,7.58,0,0,1,3.44-.74,7.12,7.12,0,0,1,5.78,2.53q2.1,2.53,2.07,7.35h-6.92C493.18,23.63,488.71,23.45,489.72,23.63Zm11.63-1.72a8.22,8.22,0,0,0-.36-2.46,5.9,5.9,0,0,0-1.07-2,5.06,5.06,0,0,0-1.77-1.34,5.76,5.76,0,0,0-2.45-.5,5.19,5.19,0,0,0-2.42.52c-.79.35-1.91.83-1.79,1.37-1.09.58-2.07,1.24-1.19,2-1.45.69-1.77,1.45-.58,2.41-1.28-.15,2.9,0,5.81,0Z"/><circle class="cls-1" cx="495.94" cy="7.92" r="2.7"/><path d="M494.93,6.51h1.31a1.38,1.38,0,0,1,.54.09.7.7,0,0,1,.4.68.78.78,0,0,1-.11.43.7.7,0,0,1-.3.26.55.55,0,0,1,.25.19.62.62,0,0,1,.1.36v.39q0,.16,0,.24a.25.25,0,0,0,.13.18v.06h-.48a.19.19,0,0,1,0-.09s0-.12,0-.23l0-.48a.41.41,0,0,0-.2-.38.76.76,0,0,0-.34-.05h-.87V9.39h-.39Zm1.27,1.32a.72.72,0,0,0,.42-.11.44.44,0,0,0,.16-.4.43.43,0,0,0-.22-.42.68.68,0,0,0-.31-.06h-.93v1Z"/></g></g></svg>